# Blender 3.3.0
# www.blender.org
mtllib battery.mtl
o Battery
v -0.145340 -0.100000 0.100000
v -0.145340 0.100000 0.100000
v -0.145340 -0.100000 -0.100000
v -0.145340 0.100000 -0.100000
v 0.145340 -0.100000 0.100000
v 0.145340 0.100000 0.100000
v 0.145340 -0.100000 -0.100000
v 0.145340 0.100000 -0.100000
v -0.145340 -0.100000 -0.050690
v -0.145340 0.100000 -0.050690
v 0.145340 -0.100000 -0.050690
v 0.145340 0.100000 -0.050690
v 0.104971 -0.100000 -0.100000
v -0.104971 -0.100000 -0.100000
v -0.104971 0.100000 -0.100000
v 0.104971 0.100000 -0.100000
v -0.104971 -0.100000 0.100000
v 0.104971 -0.100000 0.100000
v 0.104971 0.100000 0.100000
v -0.104971 0.100000 0.100000
v -0.104971 0.100000 -0.050690
v 0.104971 0.100000 -0.050690
v 0.104971 -0.100000 -0.050690
v -0.104971 -0.100000 -0.050690
v -0.145340 0.122506 -0.050690
v -0.145340 0.122506 -0.100000
v 0.104971 0.122506 -0.100000
v 0.145340 0.122506 -0.100000
v 0.145340 0.122506 -0.050690
v 0.104971 0.122506 -0.050690
v -0.104971 0.122506 -0.100000
v -0.104971 0.122506 -0.050690
vn -1.0000 -0.0000 -0.0000
vn -0.0000 -0.0000 -1.0000
vn 1.0000 -0.0000 -0.0000
vn -0.0000 -0.0000 1.0000
vn -0.0000 -1.0000 -0.0000
vn -0.0000 1.0000 -0.0000
vt 0.445312 0.248047
vt 0.435547 0.926758
vt 0.445312 0.405273
vt 0.435547 0.926758
vt 0.435547 0.926758
vt 0.435547 0.926758
vt 0.565430 0.892578
vt 0.435547 0.926758
vt 0.674805 0.248047
vt 0.435547 0.926758
vt 0.674805 0.405273
vt 0.435547 0.926758
vt 0.435547 0.926758
vt 0.565430 0.892578
vt 0.435547 0.926758
vt 0.435547 0.926758
vt 0.565430 0.892578
vt 0.435547 0.926758
vt 0.435547 0.926758
vt 0.565430 0.892578
vt 0.435547 0.926758
vt 0.435547 0.926758
vt 0.435547 0.926758
vt 0.565430 0.892578
vt 0.435547 0.926758
vt 0.565430 0.892578
vt 0.435547 0.926758
vt 0.476562 0.248047
vt 0.435547 0.926758
vt 0.642578 0.248047
vt 0.435547 0.926758
vt 0.642578 0.405273
vt 0.435547 0.926758
vt 0.476562 0.405273
vt 0.435547 0.926758
vt 0.565430 0.892578
vt 0.435547 0.926758
vt 0.565430 0.892578
vt 0.435547 0.926758
vt 0.435547 0.926758
vt 0.565430 0.892578
vt 0.565430 0.892578
vt 0.565430 0.892578
vt 0.565430 0.892578
vt 0.565430 0.892578
vt 0.565430 0.892578
vt 0.565430 0.892578
vt 0.565430 0.892578
s 0
usemtl tex2
f 9/15/1 10/16/1 4/6/1 3/5/1
f 13/21/2 16/25/2 8/13/2 7/12/2
f 11/18/3 12/19/3 6/10/3 5/8/3
f 17/28/4 20/34/4 2/3/4 1/1/4
f 23/39/5 11/18/5 5/8/5 18/29/5
f 21/35/6 10/16/6 2/4/6 20/33/6
f 22/38/4 12/20/4 29/45/4 30/46/4
f 13/21/5 7/12/5 11/18/5 23/39/5
f 7/12/3 8/13/3 12/19/3 11/18/3
f 1/2/1 2/4/1 10/16/1 9/15/1
f 3/5/5 14/22/5 24/40/5 9/15/5
f 14/22/5 13/21/5 23/39/5 24/40/5
f 8/14/2 16/26/2 27/43/2 28/44/2
f 16/25/6 15/23/6 21/35/6 22/37/6
f 12/19/6 22/37/6 19/31/6 6/10/6
f 22/37/6 21/35/6 20/33/6 19/31/6
f 9/15/5 24/40/5 17/27/5 1/2/5
f 24/40/5 23/39/5 18/29/5 17/27/5
f 5/9/4 6/11/4 19/32/4 18/30/4
f 18/30/4 19/32/4 20/34/4 17/28/4
f 3/5/2 4/6/2 15/23/2 14/22/2
f 14/22/2 15/23/2 16/25/2 13/21/2
f 31/47/6 26/42/6 25/41/6 32/48/6
f 28/44/6 27/43/6 30/46/6 29/45/6
f 16/26/1 22/38/1 30/46/1 27/43/1
f 10/17/4 21/36/4 32/48/4 25/41/4
f 12/20/3 8/14/3 28/44/3 29/45/3
f 21/36/3 15/24/3 31/47/3 32/48/3
f 4/7/1 10/17/1 25/41/1 26/42/1
f 15/24/2 4/7/2 26/42/2 31/47/2
