# Blender 3.3.0
# www.blender.org
mtllib box.mtl
o Cardboardbox
v -0.500000 0.000000 0.500000
v -0.500000 1.000000 0.500000
v -0.500000 0.000000 -0.500000
v -0.500000 1.000000 -0.500000
v 0.500000 0.000000 0.500000
v 0.500000 1.000000 0.500000
v 0.500000 0.000000 -0.500000
v 0.500000 1.000000 -0.500000
vn -1.0000 -0.0000 -0.0000
vn -0.0000 -0.0000 -1.0000
vn 1.0000 -0.0000 -0.0000
vn -0.0000 -0.0000 1.0000
vn -0.0000 -1.0000 -0.0000
vn -0.0000 1.0000 -0.0000
vt 0.037109 0.249023
vt 0.792969 0.273438
vt 0.021484 0.273438
vt 0.037109 0.249023
vt 0.599609 0.273438
vt 0.037109 0.249023
vt 0.214844 0.273438
vt 0.037109 0.249023
vt 0.407227 0.273438
vt 0.037109 0.249023
vt 0.792969 0.080078
vt 0.021484 0.080078
vt 0.037109 0.249023
vt 0.599609 0.080078
vt 0.037109 0.249023
vt 0.214844 0.080078
vt 0.037109 0.249023
vt 0.407227 0.080078
s 0
usemtl Wall
f 1/1/1 2/4/1 4/8/1 3/6/1
f 3/7/2 4/9/2 8/18/2 7/16/2
f 7/15/3 8/17/3 6/13/3 5/10/3
f 5/11/4 6/14/4 2/5/4 1/2/4
f 3/7/5 7/16/5 5/12/5 1/3/5
f 8/18/6 4/9/6 2/5/6 6/14/6
