# Blender 3.3.0
# www.blender.org
mtllib computer.mtl
o Computer
v -0.149599 0.000000 0.190000
v -0.190000 0.480000 0.190000
v -0.149599 0.000000 -0.190000
v -0.190000 0.480000 -0.190000
v 0.190000 0.000000 0.190000
v 0.114947 0.437581 0.190000
v 0.190000 0.000000 -0.190000
v 0.114947 0.437581 -0.190000
v -0.190000 0.147957 0.190000
v -0.190000 0.147957 -0.190000
v 0.190000 0.147957 -0.190000
v 0.190000 0.147957 0.190000
v -0.149599 0.128141 -0.190000
v 0.190000 0.128141 -0.190000
v 0.190000 0.128141 0.190000
v -0.149599 0.128141 0.190000
v -0.149599 0.085428 -0.190000
v -0.149599 0.042714 -0.190000
v 0.190000 0.085428 -0.190000
v 0.190000 0.042714 -0.190000
v 0.190000 0.085428 0.190000
v 0.190000 0.042714 0.190000
v -0.149599 0.042714 0.190000
v -0.149599 0.085428 0.190000
v -0.190000 0.458634 0.190000
v -0.190000 0.458634 -0.190000
v 0.119776 0.418945 -0.190000
v 0.119776 0.418945 0.190000
v -0.190000 0.176821 -0.190000
v 0.183476 0.173133 -0.190000
v 0.183476 0.173133 0.190000
v -0.190000 0.176821 0.190000
v -0.149599 0.000000 -0.166056
v -0.190000 0.480000 -0.166056
v 0.190000 0.000000 -0.166056
v 0.114947 0.437581 -0.166056
v 0.190000 0.147957 -0.166056
v -0.190000 0.147957 -0.166056
v -0.149599 0.128141 -0.166056
v 0.190000 0.128141 -0.166056
v 0.190000 0.042714 -0.166056
v 0.190000 0.085428 -0.166056
v -0.149599 0.042714 -0.166056
v -0.149599 0.085428 -0.166056
v 0.119776 0.418945 -0.166056
v -0.190000 0.458634 -0.166056
v -0.190000 0.176821 -0.166056
v 0.183476 0.173133 -0.166056
v -0.149599 0.000000 0.163856
v 0.114947 0.437581 0.163856
v 0.190000 0.147957 0.163856
v 0.190000 0.128141 0.163856
v 0.190000 0.042714 0.163856
v 0.190000 0.085428 0.163856
v 0.119776 0.418945 0.163856
v 0.183476 0.173133 0.163856
v -0.190000 0.480000 0.163856
v 0.190000 0.000000 0.163856
v -0.190000 0.147957 0.163856
v -0.149599 0.128141 0.163856
v -0.149599 0.042714 0.163856
v -0.149599 0.085428 0.163856
v -0.190000 0.458634 0.163856
v -0.190000 0.176821 0.163856
v -0.149599 0.042714 0.063752
v -0.149599 0.085428 0.063752
v -0.154104 0.458634 0.163856
v -0.154104 0.458634 -0.166056
v -0.154104 0.176821 0.163856
v -0.154104 0.176821 -0.166056
v -0.154104 0.458634 0.081378
v -0.154104 0.458634 -0.001100
v -0.154104 0.458634 -0.083578
v -0.154104 0.176821 0.081378
v -0.154104 0.176821 -0.001100
v -0.154104 0.176821 -0.083578
v -0.154104 0.388181 -0.166056
v -0.154104 0.317727 -0.166056
v -0.154104 0.247274 -0.166056
v -0.154104 0.388181 0.163856
v -0.154104 0.317727 0.163856
v -0.154104 0.247274 0.163856
v -0.169940 0.247274 0.081378
v -0.169940 0.247274 -0.001100
v -0.169940 0.247274 -0.083578
v -0.169940 0.317727 0.081378
v -0.169940 0.317727 -0.001100
v -0.169940 0.317727 -0.083578
v -0.169940 0.388181 0.081378
v -0.169940 0.388181 -0.001100
v -0.169940 0.388181 -0.083578
v -0.154104 0.458634 -0.124817
v -0.154104 0.176821 -0.124817
v -0.154104 0.212047 -0.166056
v -0.154104 0.212047 0.163856
v -0.154104 0.458634 0.122617
v -0.154104 0.458634 0.040139
v -0.154104 0.458634 -0.042339
v -0.154104 0.176821 0.122617
v -0.154104 0.176821 0.040139
v -0.154104 0.176821 -0.042339
v -0.154104 0.423408 -0.166056
v -0.154104 0.352954 -0.166056
v -0.154104 0.282501 -0.166056
v -0.154104 0.423408 0.163856
v -0.154104 0.352954 0.163856
v -0.154104 0.282501 0.163856
v -0.162022 0.247274 -0.124817
v -0.162022 0.247274 0.122617
v -0.169940 0.247274 0.040139
v -0.169940 0.247274 -0.042339
v -0.162022 0.317727 -0.124817
v -0.162022 0.317727 0.122617
v -0.169940 0.317727 0.040139
v -0.169940 0.317727 -0.042339
v -0.162022 0.388181 -0.124817
v -0.162022 0.388181 0.122617
v -0.169940 0.388181 0.040139
v -0.169940 0.388181 -0.042339
v -0.162022 0.212047 0.081378
v -0.162022 0.212047 -0.001100
v -0.162022 0.212047 -0.083578
v -0.169940 0.282501 0.081378
v -0.169940 0.282501 -0.001100
v -0.169940 0.282501 -0.083578
v -0.169940 0.352954 0.081378
v -0.169940 0.352954 -0.001100
v -0.169940 0.352954 -0.083578
v -0.162022 0.423408 0.081378
v -0.162022 0.423408 -0.001100
v -0.162022 0.423408 -0.083578
v -0.162022 0.423408 -0.042339
v -0.162022 0.423408 0.040139
v -0.158063 0.423408 0.122617
v -0.169940 0.352954 -0.042339
v -0.169940 0.352954 0.040139
v -0.162022 0.352954 0.122617
v -0.169940 0.282501 -0.042339
v -0.169940 0.282501 0.040139
v -0.162022 0.282501 0.122617
v -0.162022 0.212047 -0.042339
v -0.162022 0.212047 0.040139
v -0.158063 0.212047 0.122617
v -0.162022 0.352954 -0.124817
v -0.162022 0.282501 -0.124817
v -0.158063 0.212047 -0.124817
v -0.158063 0.423408 -0.124817
vn -1.0000 -0.0000 -0.0000
vn -0.0000 -0.0000 -1.0000
vn 0.9680 0.2509 -0.0000
vn -0.0000 -0.0000 1.0000
vn -0.0000 -1.0000 -0.0000
vn 0.1378 0.9905 -0.0000
vn 1.0000 -0.0000 -0.0000
vn -0.4404 -0.8978 -0.0000
vn -0.9893 0.1108 -0.0948
vn -0.7440 -0.6673 -0.0357
vn -0.5968 -0.5649 0.5698
vn -0.7384 0.0415 0.6731
vn -0.0000 1.0000 -0.0000
vn -0.9893 -0.1108 -0.0948
vn -0.9847 -0.0555 -0.1654
vn -0.7628 -0.0215 0.6462
vn -0.7384 -0.0415 0.6731
vn -0.9821 -0.0000 -0.1886
vn -0.7709 -0.0000 0.6370
vn -0.9847 0.0555 -0.1654
vn -0.7628 0.0215 0.6462
vn -0.9893 -0.1108 0.0948
vn -0.9847 -0.0555 0.1654
vn -0.9919 -0.0963 0.0826
vn -0.9801 -0.1927 0.0474
vn -0.9757 -0.2193 -0.0000
vn -0.9939 -0.1103 -0.0000
vn -0.9919 -0.0963 -0.0826
vn -0.9801 -0.1927 -0.0474
vn -0.9821 -0.0000 0.1886
vn -0.9955 -0.0000 0.0947
vn -0.9955 -0.0000 -0.0947
vn -0.9847 0.0555 0.1654
vn -0.9919 0.0963 0.0826
vn -0.9939 0.1103 -0.0000
vn -0.9919 0.0963 -0.0826
vn -0.9893 0.1108 0.0948
vn -0.7440 -0.6673 0.0357
vn -0.7718 -0.6356 0.0186
vn -0.9801 0.1927 0.0474
vn -0.9757 0.2193 -0.0000
vn -0.7808 -0.6248 -0.0000
vn -0.7718 -0.6356 -0.0186
vn -0.9801 0.1927 -0.0474
vn -0.7628 0.0215 -0.6462
vn -0.7384 0.0415 -0.6731
vn -0.5968 -0.5649 -0.5698
vn -0.7709 -0.0000 -0.6370
vn -0.7628 -0.0215 -0.6462
vn -0.7808 0.6248 -0.0000
vn -0.7718 0.6356 -0.0186
vn -0.7718 0.6356 0.0186
vn -0.7440 0.6673 0.0357
vn -0.5968 0.5649 -0.5698
vn -0.7384 -0.0415 -0.6731
vn -0.7440 0.6673 -0.0357
vn -0.5968 0.5649 0.5698
vt 0.449219 0.967773
vt 0.449219 0.967773
vt 0.449219 0.967773
vt 0.449219 0.967773
vt 0.449219 0.967773
vt 0.449219 0.967773
vt 0.449219 0.967773
vt 0.449219 0.967773
vt 0.449219 0.967773
vt 0.449219 0.967773
vt 0.449219 0.967773
vt 0.449219 0.967773
vt 0.449219 0.967773
vt 0.449219 0.967773
vt 0.449219 0.967773
vt 0.449219 0.967773
vt 0.449219 0.967773
vt 0.449219 0.967773
vt 0.449219 0.967773
vt 0.449219 0.967773
vt 0.449219 0.967773
vt 0.449219 0.967773
vt 0.449219 0.967773
vt 0.449219 0.967773
vt 0.449219 0.967773
vt 0.449219 0.967773
vt 0.449219 0.967773
vt 0.449219 0.967773
vt 0.449219 0.967773
vt 0.449219 0.967773
vt 0.449219 0.967773
vt 0.449219 0.967773
vt 0.449219 0.967773
vt 0.449219 0.967773
vt 0.449219 0.967773
vt 0.449219 0.967773
vt 0.449219 0.967773
vt 0.449219 0.967773
vt 0.449219 0.967773
vt 0.449219 0.967773
vt 0.449219 0.967773
vt 0.449219 0.967773
vt 0.445312 0.915039
vt 0.449219 0.967773
vt 0.445312 0.915039
vt 0.449219 0.967773
vt 0.449219 0.967773
vt 0.449219 0.967773
vt 0.449219 0.967773
vt 0.449219 0.967773
vt 0.449219 0.967773
vt 0.449219 0.967773
vt 0.449219 0.967773
vt 0.449219 0.967773
vt 0.449219 0.967773
vt 0.449219 0.967773
vt 0.449219 0.967773
vt 0.449219 0.967773
vt 0.449219 0.967773
vt 0.449219 0.967773
vt 0.449219 0.967773
vt 0.449219 0.967773
vt 0.449219 0.967773
vt 0.449219 0.967773
vt 0.449219 0.967773
vt 0.449219 0.967773
vt 0.445312 0.915039
vt 0.449219 0.967773
vt 0.445312 0.915039
vt 0.449219 0.967773
vt 0.449219 0.967773
vt 0.413086 0.987305
vt 0.014648 0.986328
vt 0.449219 0.967773
vt 0.449219 0.967773
vt 0.413086 0.646484
vt 0.449219 0.967773
vt 0.013672 0.645508
vt 0.449219 0.967773
vt 0.313477 0.987305
vt 0.449219 0.967773
vt 0.213867 0.988281
vt 0.449219 0.967773
vt 0.113281 0.987305
vt 0.449219 0.967773
vt 0.314453 0.645508
vt 0.449219 0.967773
vt 0.213867 0.645508
vt 0.449219 0.967773
vt 0.114258 0.645508
vt 0.449219 0.967773
vt 0.014648 0.901367
vt 0.449219 0.967773
vt 0.013672 0.816406
vt 0.449219 0.967773
vt 0.014648 0.731445
vt 0.449219 0.967773
vt 0.413086 0.902344
vt 0.449219 0.967773
vt 0.414062 0.815430
vt 0.449219 0.967773
vt 0.413086 0.731445
vt 0.312500 0.732422
vt 0.213867 0.732422
vt 0.115234 0.732422
vt 0.312500 0.816406
vt 0.213867 0.816406
vt 0.115234 0.816406
vt 0.312500 0.900391
vt 0.213867 0.901367
vt 0.115234 0.900391
vt 0.449219 0.967773
vt 0.064453 0.986328
vt 0.449219 0.967773
vt 0.064453 0.645508
vt 0.449219 0.967773
vt 0.013672 0.688477
vt 0.449219 0.967773
vt 0.413086 0.689453
vt 0.449219 0.967773
vt 0.363281 0.987305
vt 0.449219 0.967773
vt 0.263672 0.988281
vt 0.449219 0.967773
vt 0.164062 0.987305
vt 0.449219 0.967773
vt 0.363281 0.646484
vt 0.449219 0.967773
vt 0.263672 0.645508
vt 0.449219 0.967773
vt 0.164062 0.645508
vt 0.449219 0.967773
vt 0.014648 0.944336
vt 0.449219 0.967773
vt 0.013672 0.859375
vt 0.449219 0.967773
vt 0.013672 0.773438
vt 0.449219 0.967773
vt 0.413086 0.944336
vt 0.449219 0.967773
vt 0.414062 0.859375
vt 0.449219 0.967773
vt 0.414062 0.774414
vt 0.065430 0.731445
vt 0.363281 0.731445
vt 0.263672 0.732422
vt 0.165039 0.732422
vt 0.064453 0.816406
vt 0.363281 0.816406
vt 0.263672 0.816406
vt 0.164062 0.816406
vt 0.064453 0.901367
vt 0.362305 0.901367
vt 0.262695 0.901367
vt 0.164062 0.900391
vt 0.313477 0.689453
vt 0.213867 0.688477
vt 0.115234 0.688477
vt 0.312500 0.774414
vt 0.213867 0.774414
vt 0.115234 0.774414
vt 0.312500 0.858398
vt 0.213867 0.858398
vt 0.115234 0.858398
vt 0.312500 0.944336
vt 0.213867 0.944336
vt 0.114258 0.943359
vt 0.164062 0.944336
vt 0.263672 0.944336
vt 0.363281 0.944336
vt 0.164062 0.858398
vt 0.263672 0.858398
vt 0.363281 0.859375
vt 0.164062 0.774414
vt 0.263672 0.774414
vt 0.363281 0.774414
vt 0.164062 0.688477
vt 0.263672 0.688477
vt 0.363281 0.689453
vt 0.064453 0.858398
vt 0.064453 0.773438
vt 0.064453 0.688477
vt 0.064453 0.944336
s 0
usemtl Material.001
f 46/48/1 34/34/1 4/4/1 26/26/1
f 26/26/2 4/4/2 8/8/2 27/27/2
f 55/57/3 50/52/3 6/6/3 28/28/3
f 28/28/4 6/6/4 2/2/4 25/25/4
f 49/51/5 58/60/5 5/5/5 1/1/5
f 50/52/6 57/59/6 2/2/6 6/6/6
f 15/15/4 12/12/4 9/9/4 16/16/4
f 52/54/7 51/53/7 12/12/7 15/15/7
f 13/13/2 10/10/2 11/11/2 14/14/2
f 39/39/8 38/38/8 10/10/8 13/13/8
f 44/46/1 39/39/1 13/13/1 17/17/1
f 17/17/2 13/13/2 14/14/2 19/19/2
f 54/56/7 52/54/7 15/15/7 21/21/7
f 21/21/4 15/15/4 16/16/4 24/24/4
f 5/5/4 22/22/4 23/23/4 1/1/4
f 22/22/4 21/21/4 24/24/4 23/23/4
f 58/60/7 53/55/7 22/22/7 5/5/7
f 53/55/7 54/56/7 21/21/7 22/22/7
f 3/3/2 18/18/2 20/20/2 7/7/2
f 18/18/2 17/17/2 19/19/2 20/20/2
f 33/33/1 43/44/1 18/18/1 3/3/1
f 43/44/1 44/46/1 17/17/1 18/18/1
f 31/31/4 28/28/4 25/25/4 32/32/4
f 56/58/3 55/57/3 28/28/3 31/31/3
f 29/29/2 26/26/2 27/27/2 30/30/2
f 47/49/1 46/48/1 26/26/1 29/29/1
f 38/38/1 47/49/1 29/29/1 10/10/1
f 10/10/2 29/29/2 30/30/2 11/11/2
f 51/53/3 56/58/3 31/31/3 12/12/3
f 12/12/4 31/31/4 32/32/4 9/9/4
f 11/11/3 30/30/3 48/50/3 37/37/3
f 59/61/1 64/66/1 47/49/1 38/38/1
f 63/65/5 46/48/5 68/74/5 92/112/5 73/83/5 98/124/5 72/81/5 97/122/5 71/79/5 96/120/5 67/71/5
f 30/30/3 27/27/3 45/47/3 48/50/3
f 65/67/1 66/69/1 44/45/1 43/43/1
f 49/51/1 61/63/1 65/68/1 43/44/1 33/33/1
f 20/20/7 19/19/7 42/42/7 41/41/7
f 7/7/7 20/20/7 41/41/7 35/35/7
f 19/19/7 14/14/7 40/40/7 42/42/7
f 62/64/1 60/62/1 39/39/1 44/46/1 66/70/1
f 60/62/8 59/61/8 38/38/8 39/39/8
f 14/14/7 11/11/7 37/37/7 40/40/7
f 8/8/6 4/4/6 34/34/6 36/36/6
f 3/3/5 7/7/5 35/35/5 33/33/5
f 27/27/3 8/8/3 36/36/3 45/47/3
f 63/65/1 57/59/1 34/34/1 46/48/1
f 25/25/1 2/2/1 57/59/1 63/65/1
f 16/16/8 9/9/8 59/61/8 60/62/8
f 24/24/1 16/16/1 60/62/1 62/64/1
f 1/1/1 23/23/1 61/63/1 49/51/1
f 23/23/1 24/24/1 62/64/1 61/63/1
f 32/32/1 25/25/1 63/65/1 64/66/1
f 9/9/1 32/32/1 64/66/1 59/61/1
f 37/37/3 48/50/3 56/58/3 51/53/3
f 48/50/3 45/47/3 55/57/3 56/58/3
f 41/41/7 42/42/7 54/56/7 53/55/7
f 35/35/7 41/41/7 53/55/7 58/60/7
f 42/42/7 40/40/7 52/54/7 54/56/7
f 40/40/7 37/37/7 51/53/7 52/54/7
f 36/36/6 34/34/6 57/59/6 50/52/6
f 33/33/5 35/35/5 58/60/5 49/51/5
f 45/47/3 36/36/3 50/52/3 55/57/3
f 61/63/1 62/64/1 66/70/1 65/68/1
s 1
f 147/183/9 92/113/10 68/73/11 102/133/12
s 0
f 64/66/2 63/65/2 67/71/2 105/138/2 80/97/2 106/140/2 81/99/2 107/142/2 82/101/2 95/118/2 69/75/2
f 46/48/4 47/49/4 70/77/4 94/116/4 79/95/4 104/136/4 78/93/4 103/134/4 77/91/4 102/132/4 68/74/4
f 47/49/13 64/66/13 69/75/13 99/126/13 74/85/13 100/128/13 75/87/13 101/130/13 76/89/13 93/114/13 70/77/13
s 1
f 146/182/14 108/144/15 79/96/16 94/117/17
f 145/181/18 112/148/18 78/94/19 104/137/19
f 144/180/18 116/152/20 77/92/21 103/135/19
f 143/179/22 109/145/23 83/103/24 120/156/25
f 142/178/26 110/146/27 84/104/27 121/157/26
f 141/177/26 111/147/27 85/105/28 122/158/29
f 140/176/30 113/149/30 86/106/31 123/159/31
f 139/175/1 114/150/1 87/107/1 124/160/1
f 138/174/1 115/151/1 88/108/32 125/161/32
f 137/173/30 117/153/33 89/109/34 126/162/31
f 136/172/1 118/154/35 90/110/35 127/163/1
f 135/171/1 119/155/35 91/111/36 128/164/32
f 134/170/37 96/121/38 71/80/39 129/165/40
f 133/169/41 97/123/42 72/82/42 130/166/41
f 132/168/41 98/125/42 73/84/43 131/167/44
f 119/155/35 132/168/41 131/167/44 91/111/36
f 90/110/35 130/166/41 132/168/41 119/155/35
f 130/166/41 72/82/42 98/125/42 132/168/41
f 118/154/35 133/169/41 130/166/41 90/110/35
f 89/109/34 129/165/40 133/169/41 118/154/35
f 129/165/40 71/80/39 97/123/42 133/169/41
f 117/153/33 134/170/37 129/165/40 89/109/34
f 80/98/45 105/139/46 134/170/37 117/153/33
f 105/139/46 67/72/47 96/121/38 134/170/37
f 115/151/1 135/171/1 128/164/32 88/108/32
f 87/107/1 127/163/1 135/171/1 115/151/1
f 127/163/1 90/110/35 119/155/35 135/171/1
f 114/150/1 136/172/1 127/163/1 87/107/1
f 86/106/31 126/162/31 136/172/1 114/150/1
f 126/162/31 89/109/34 118/154/35 136/172/1
f 113/149/30 137/173/30 126/162/31 86/106/31
f 81/100/48 106/141/48 137/173/30 113/149/30
f 106/141/48 80/98/45 117/153/33 137/173/30
f 111/147/27 138/174/1 125/161/32 85/105/28
f 84/104/27 124/160/1 138/174/1 111/147/27
f 124/160/1 87/107/1 115/151/1 138/174/1
f 110/146/27 139/175/1 124/160/1 84/104/27
f 83/103/24 123/159/31 139/175/1 110/146/27
f 123/159/31 86/106/31 114/150/1 139/175/1
f 109/145/23 140/176/30 123/159/31 83/103/24
f 82/102/49 107/143/48 140/176/30 109/145/23
f 107/143/48 81/100/48 113/149/30 140/176/30
f 101/131/50 141/177/26 122/158/29 76/90/51
f 75/88/50 121/157/26 141/177/26 101/131/50
f 121/157/26 84/104/27 111/147/27 141/177/26
f 100/129/50 142/178/26 121/157/26 75/88/50
f 74/86/52 120/156/25 142/178/26 100/129/50
f 120/156/25 83/103/24 110/146/27 142/178/26
f 99/127/53 143/179/22 120/156/25 74/86/52
f 69/76/54 95/119/55 143/179/22 99/127/53
f 95/119/55 82/102/49 109/145/23 143/179/22
f 112/148/18 144/180/18 103/135/19 78/94/19
f 88/108/32 128/164/32 144/180/18 112/148/18
f 128/164/32 91/111/36 116/152/20 144/180/18
f 108/144/15 145/181/18 104/137/19 79/96/16
f 85/105/28 125/161/32 145/181/18 108/144/15
f 125/161/32 88/108/32 112/148/18 145/181/18
f 93/115/56 146/182/14 94/117/17 70/78/57
f 76/90/51 122/158/29 146/182/14 93/115/56
f 122/158/29 85/105/28 108/144/15 146/182/14
f 116/152/20 147/183/9 102/133/12 77/92/21
f 91/111/36 131/167/44 147/183/9 116/152/20
f 131/167/44 73/84/43 92/113/10 147/183/9
