# Blender 3.3.0
# www.blender.org
mtllib door.mtl
o Door
v -0.025000 0.000000 -0.500000
v -0.025000 0.000000 0.500000
v -0.025000 2.062500 0.500000
v -0.025000 2.062500 -0.500000
v -0.025000 1.775000 0.500000
v -0.025000 0.487500 0.500000
v -0.025000 0.487500 -0.500000
v -0.025000 1.775000 -0.500000
v -0.025000 0.000000 0.296667
v -0.025000 0.000000 -0.296667
v -0.025000 2.062500 -0.296667
v -0.025000 2.062500 0.296667
v -0.025000 1.775000 -0.296667
v -0.025000 1.775000 0.296667
v -0.025000 0.487500 -0.296667
v -0.025000 0.487500 0.296667
v -0.025000 1.775000 -0.296667
v -0.025000 1.775000 0.296667
v -0.025000 0.487500 -0.296667
v -0.025000 0.487500 0.296667
v -0.010000 1.775000 -0.296667
v -0.010000 1.775000 0.296667
v -0.010000 0.487500 -0.296667
v -0.010000 0.487500 0.296667
v -0.025000 1.153857 0.500000
v -0.025000 1.108642 0.500000
v -0.025000 1.108642 -0.500000
v -0.025000 1.153857 -0.500000
v -0.025000 1.153857 0.296667
v -0.025000 1.108642 0.296667
v -0.025000 1.153857 -0.296667
v -0.025000 1.108642 -0.296667
v -0.025000 1.153857 0.296667
v -0.025000 1.108642 0.296667
v -0.025000 1.153857 -0.296667
v -0.025000 1.108642 -0.296667
v -0.010000 1.153857 0.296667
v -0.010000 1.108642 0.296667
v -0.010000 1.153857 -0.296667
v -0.010000 1.108642 -0.296667
v -0.025000 0.000000 -0.373226
v -0.025000 0.000000 -0.423441
v -0.025000 2.062500 -0.423441
v -0.025000 2.062500 -0.373226
v -0.025000 1.775000 -0.423441
v -0.025000 1.775000 -0.373226
v -0.025000 0.487500 -0.423441
v -0.025000 0.487500 -0.373226
v -0.025000 1.153857 -0.423441
v -0.025000 1.153857 -0.373226
v -0.025000 1.108642 -0.423441
v -0.025000 1.108642 -0.373226
v -0.041031 1.161332 -0.431742
v -0.041031 1.161332 -0.364925
v -0.041031 1.101168 -0.431742
v -0.041031 1.101168 -0.364925
v -0.059132 1.161332 -0.431742
v -0.059132 1.161332 -0.364925
v -0.059132 1.101168 -0.431742
v -0.059132 1.101168 -0.364925
v -0.059132 1.161332 -0.431742
v -0.059132 1.161332 -0.364925
v -0.059132 1.101168 -0.431742
v -0.059132 1.101168 -0.364925
v -0.067518 1.145768 -0.414456
v -0.067518 1.145768 -0.382211
v -0.067518 1.116732 -0.414456
v -0.067518 1.116732 -0.382211
v 0.000000 0.000000 -0.500000
v 0.000000 0.000000 0.500000
v 0.000000 2.062500 -0.500000
v 0.000000 2.062500 0.500000
v 0.000000 1.775000 0.500000
v 0.000000 0.487500 0.500000
v 0.000000 1.775000 -0.500000
v 0.000000 0.487500 -0.500000
v 0.000000 2.062500 0.296667
v 0.000000 2.062500 -0.296667
v 0.000000 0.000000 0.296667
v 0.000000 0.000000 -0.296667
v 0.000000 1.153857 -0.500000
v 0.000000 1.108642 -0.500000
v 0.000000 1.153857 0.500000
v 0.000000 1.108642 0.500000
v 0.000000 2.062500 -0.373226
v 0.000000 2.062500 -0.423441
v 0.000000 0.000000 -0.373226
v 0.000000 0.000000 -0.423441
v 0.025000 0.000000 -0.500000
v 0.025000 0.000000 0.500000
v 0.025000 2.062500 0.500000
v 0.025000 2.062500 -0.500000
v 0.025000 1.775000 0.500000
v 0.025000 0.487500 0.500000
v 0.025000 0.487500 -0.500000
v 0.025000 1.775000 -0.500000
v 0.025000 0.000000 0.296667
v 0.025000 0.000000 -0.296667
v 0.025000 2.062500 -0.296667
v 0.025000 2.062500 0.296667
v 0.025000 1.775000 -0.296667
v 0.025000 1.775000 0.296667
v 0.025000 0.487500 -0.296667
v 0.025000 0.487500 0.296667
v 0.025000 1.775000 -0.296667
v 0.025000 1.775000 0.296667
v 0.025000 0.487500 -0.296667
v 0.025000 0.487500 0.296667
v 0.010000 1.775000 -0.296667
v 0.010000 1.775000 0.296667
v 0.010000 0.487500 -0.296667
v 0.010000 0.487500 0.296667
v 0.025000 1.153857 0.500000
v 0.025000 1.108642 0.500000
v 0.025000 1.108642 -0.500000
v 0.025000 1.153857 -0.500000
v 0.025000 1.153857 0.296667
v 0.025000 1.108642 0.296667
v 0.025000 1.153857 -0.296667
v 0.025000 1.108642 -0.296667
v 0.025000 1.153857 0.296667
v 0.025000 1.108642 0.296667
v 0.025000 1.153857 -0.296667
v 0.025000 1.108642 -0.296667
v 0.010000 1.153857 0.296667
v 0.010000 1.108642 0.296667
v 0.010000 1.153857 -0.296667
v 0.010000 1.108642 -0.296667
v 0.025000 0.000000 -0.373226
v 0.025000 0.000000 -0.423441
v 0.025000 2.062500 -0.423441
v 0.025000 2.062500 -0.373226
v 0.025000 1.775000 -0.423441
v 0.025000 1.775000 -0.373226
v 0.025000 0.487500 -0.423441
v 0.025000 0.487500 -0.373226
v 0.025000 1.153857 -0.423441
v 0.025000 1.153857 -0.373226
v 0.025000 1.108642 -0.423441
v 0.025000 1.108642 -0.373226
v 0.041031 1.161332 -0.431742
v 0.041031 1.161332 -0.364925
v 0.041031 1.101168 -0.431742
v 0.041031 1.101168 -0.364925
v 0.059132 1.161332 -0.431742
v 0.059132 1.161332 -0.364925
v 0.059132 1.101168 -0.431742
v 0.059132 1.101168 -0.364925
v 0.059132 1.161332 -0.431742
v 0.059132 1.161332 -0.364925
v 0.059132 1.101168 -0.431742
v 0.059132 1.101168 -0.364925
v 0.067518 1.145768 -0.414456
v 0.067518 1.145768 -0.382211
v 0.067518 1.116732 -0.414456
v 0.067518 1.116732 -0.382211
vn -1.0000 -0.0000 -0.0000
vn -0.0000 -0.0000 -1.0000
vn -0.0000 1.0000 -0.0000
vn -0.0000 -0.0000 1.0000
vn -0.0000 -1.0000 -0.0000
vn 0.4598 -0.0000 0.8880
vn 0.4598 -0.0000 -0.8880
vn 0.4226 -0.9063 -0.0000
vn 0.4226 0.9063 -0.0000
vn -0.8997 -0.0000 0.4365
vn -0.8804 0.4743 -0.0000
vn -0.8997 -0.0000 -0.4365
vn -0.8804 -0.4743 -0.0000
vn 1.0000 -0.0000 -0.0000
vn -0.4598 -0.0000 0.8880
vn -0.4598 -0.0000 -0.8880
vn -0.4226 -0.9063 -0.0000
vn -0.4226 0.9063 -0.0000
vn 0.8997 -0.0000 0.4365
vn 0.8804 0.4743 -0.0000
vn 0.8997 -0.0000 -0.4365
vn 0.8804 -0.4743 -0.0000
vt 0.192383 0.959961
vt 0.192383 0.959961
vt 0.192383 0.959961
vt 0.192383 0.959961
vt 0.192383 0.959961
vt 0.192383 0.959961
vt 0.192383 0.959961
vt 0.192383 0.959961
vt 0.192383 0.959961
vt 0.192383 0.959961
vt 0.192383 0.959961
vt 0.192383 0.959961
vt 0.192383 0.959961
vt 0.192383 0.959961
vt 0.192383 0.959961
vt 0.192383 0.959961
vt 0.192383 0.959961
vt 0.192383 0.959961
vt 0.192383 0.959961
vt 0.192383 0.959961
vt 0.227539 0.384766
vt 0.192383 0.959961
vt 0.192383 0.959961
vt 0.016602 0.384766
vt 0.227539 0.843750
vt 0.192383 0.959961
vt 0.016602 0.843750
vt 0.192383 0.959961
vt 0.192383 0.959961
vt 0.192383 0.959961
vt 0.192383 0.959961
vt 0.192383 0.959961
vt 0.192383 0.959961
vt 0.192383 0.959961
vt 0.192383 0.959961
vt 0.192383 0.959961
vt 0.192383 0.959961
vt 0.192383 0.959961
vt 0.192383 0.959961
vt 0.192383 0.959961
vt 0.192383 0.959961
vt 0.016602 0.606445
vt 0.192383 0.959961
vt 0.016602 0.622070
vt 0.227539 0.606445
vt 0.192383 0.959961
vt 0.227539 0.622070
vt 0.192383 0.959961
vt 0.192383 0.959961
vt 0.192383 0.959961
vt 0.192383 0.959961
vt 0.192383 0.959961
vt 0.192383 0.959961
vt 0.192383 0.959961
vt 0.192383 0.959961
vt 0.192383 0.959961
vt 0.192383 0.959961
vt 0.045898 0.880859
vt 0.192383 0.959961
vt 0.045898 0.880859
vt 0.192383 0.959961
vt 0.045898 0.880859
vt 0.192383 0.959961
vt 0.045898 0.880859
vt 0.045898 0.880859
vt 0.045898 0.880859
vt 0.045898 0.880859
vt 0.045898 0.880859
vt 0.045898 0.880859
vt 0.045898 0.880859
vt 0.045898 0.880859
vt 0.045898 0.880859
vt 0.045898 0.880859
vt 0.045898 0.880859
vt 0.045898 0.880859
vt 0.045898 0.880859
vt 0.045898 0.880859
vt 0.045898 0.880859
vt 0.045898 0.880859
vt 0.045898 0.880859
vt 0.192383 0.959961
vt 0.192383 0.959961
vt 0.192383 0.959961
vt 0.192383 0.959961
vt 0.192383 0.959961
vt 0.192383 0.959961
vt 0.192383 0.959961
vt 0.192383 0.959961
vt 0.192383 0.959961
vt 0.192383 0.959961
vt 0.192383 0.959961
vt 0.192383 0.959961
vt 0.192383 0.959961
vt 0.192383 0.959961
vt 0.192383 0.959961
vt 0.192383 0.959961
vt 0.192383 0.959961
vt 0.192383 0.959961
vt 0.192383 0.959961
vt 0.192383 0.959961
vt 0.192383 0.959961
vt 0.192383 0.959961
vt 0.192383 0.959961
vt 0.192383 0.959961
vt 0.192383 0.959961
vt 0.192383 0.959961
vt 0.192383 0.959961
vt 0.192383 0.959961
vt 0.192383 0.959961
vt 0.192383 0.959961
vt 0.192383 0.959961
vt 0.192383 0.959961
vt 0.192383 0.959961
vt 0.192383 0.959961
vt 0.192383 0.959961
vt 0.192383 0.959961
vt 0.192383 0.959961
vt 0.192383 0.959961
vt 0.192383 0.959961
vt 0.192383 0.959961
vt 0.227539 0.843750
vt 0.192383 0.959961
vt 0.192383 0.959961
vt 0.016602 0.843750
vt 0.227539 0.384766
vt 0.192383 0.959961
vt 0.016602 0.384766
vt 0.192383 0.959961
vt 0.192383 0.959961
vt 0.192383 0.959961
vt 0.192383 0.959961
vt 0.192383 0.959961
vt 0.192383 0.959961
vt 0.192383 0.959961
vt 0.192383 0.959961
vt 0.192383 0.959961
vt 0.192383 0.959961
vt 0.192383 0.959961
vt 0.192383 0.959961
vt 0.192383 0.959961
vt 0.192383 0.959961
vt 0.016602 0.622070
vt 0.192383 0.959961
vt 0.016602 0.606445
vt 0.227539 0.622070
vt 0.192383 0.959961
vt 0.227539 0.606445
vt 0.192383 0.959961
vt 0.192383 0.959961
vt 0.192383 0.959961
vt 0.192383 0.959961
vt 0.192383 0.959961
vt 0.192383 0.959961
vt 0.192383 0.959961
vt 0.192383 0.959961
vt 0.192383 0.959961
vt 0.192383 0.959961
vt 0.045898 0.880859
vt 0.192383 0.959961
vt 0.045898 0.880859
vt 0.192383 0.959961
vt 0.045898 0.880859
vt 0.192383 0.959961
vt 0.045898 0.880859
vt 0.045898 0.880859
vt 0.045898 0.880859
vt 0.045898 0.880859
vt 0.045898 0.880859
vt 0.045898 0.880859
vt 0.045898 0.880859
vt 0.045898 0.880859
vt 0.045898 0.880859
vt 0.045898 0.880859
vt 0.045898 0.880859
vt 0.045898 0.880859
vt 0.045898 0.880859
vt 0.045898 0.880859
vt 0.045898 0.880859
vt 0.045898 0.880859
vt 0.045898 0.880859
s 0
f 47/55/1 7/7/1 1/1/1 42/50/1
f 76/88/2 69/81/2 1/1/2 7/7/2
f 71/83/2 75/87/2 8/8/2 4/4/2
f 82/94/2 76/88/2 7/7/2 27/31/2
f 43/51/1 4/4/1 8/8/1 45/53/1
f 51/61/1 27/31/1 7/7/1 47/55/1
f 26/30/1 30/34/1 16/16/1 6/6/1
f 15/15/3 16/16/3 20/20/3 19/19/3
f 3/3/1 12/12/1 14/14/1 5/5/1
f 12/12/1 11/11/1 13/13/1 14/14/1
f 32/36/3 15/15/3 19/19/3 36/40/3
f 6/6/1 16/16/1 9/9/1 2/2/1
f 16/16/1 15/15/1 10/10/1 9/9/1
f 36/40/4 19/19/4 23/26/4 40/48/4
f 14/14/3 13/13/3 17/17/3 18/18/3
f 29/33/3 14/14/3 18/18/3 33/37/3
f 38/44/1 40/47/1 23/25/1 24/27/1
f 19/19/3 20/20/3 24/28/3 23/26/3
f 33/37/2 18/18/2 22/23/2 37/41/2
f 18/18/5 17/17/5 21/22/5 22/23/5
f 20/20/2 34/38/2 38/43/2 24/28/2
f 34/38/2 33/37/2 37/41/2 38/43/2
f 22/24/1 21/21/1 39/45/1 37/42/1
f 37/42/1 39/45/1 40/47/1 38/44/1
f 16/16/3 30/34/3 34/38/3 20/20/3
f 30/34/3 29/33/3 33/37/3 34/38/3
f 17/17/4 35/39/4 39/46/4 21/22/4
f 35/39/4 36/40/4 40/48/4 39/46/4
f 13/13/3 31/35/3 35/39/3 17/17/3
f 31/35/3 32/36/3 36/40/3 35/39/3
f 5/5/1 14/14/1 29/33/1 25/29/1
f 25/29/1 29/33/1 30/34/1 26/30/1
f 45/53/1 8/8/1 28/32/1 49/57/1
f 49/57/1 28/32/1 27/31/1 51/61/1
f 75/87/2 81/93/2 28/32/2 8/8/2
f 81/93/2 82/94/2 27/31/2 28/32/2
f 31/35/1 50/59/1 52/63/1 32/36/1
f 52/64/6 50/60/6 54/66/6 56/68/6
f 13/13/1 46/54/1 50/59/1 31/35/1
f 46/54/1 45/53/1 49/57/1 50/59/1
f 32/36/1 52/63/1 48/56/1 15/15/1
f 52/63/1 51/61/1 47/55/1 48/56/1
f 11/11/1 44/52/1 46/54/1 13/13/1
f 44/52/1 43/51/1 45/53/1 46/54/1
f 15/15/1 48/56/1 41/49/1 10/10/1
f 48/56/1 47/55/1 42/50/1 41/49/1
f 54/66/3 53/65/3 57/69/3 58/70/3
f 49/58/7 51/62/7 55/67/7 53/65/7
f 51/62/8 52/64/8 56/68/8 55/67/8
f 50/60/9 49/58/9 53/65/9 54/66/9
f 57/69/3 59/71/3 63/75/3 61/73/3
f 53/65/2 55/67/2 59/71/2 57/69/2
f 55/67/5 56/68/5 60/72/5 59/71/5
f 56/68/4 54/66/4 58/70/4 60/72/4
f 64/76/10 62/74/10 66/78/10 68/80/10
f 59/71/3 60/72/3 64/76/3 63/75/3
f 60/72/3 58/70/3 62/74/3 64/76/3
f 58/70/3 57/69/3 61/73/3 62/74/3
f 66/78/1 65/77/1 67/79/1 68/80/1
f 62/74/11 61/73/11 65/77/11 66/78/11
f 61/73/12 63/75/12 67/79/12 65/77/12
f 63/75/13 64/76/13 68/80/13 67/79/13
f 41/49/5 42/50/5 88/100/5 87/99/5
f 10/10/5 41/49/5 87/99/5 80/92/5
f 44/52/3 85/97/3 86/98/3 43/51/3
f 11/11/3 78/90/3 85/97/3 44/52/3
f 25/29/4 26/30/4 84/96/4 83/95/4
f 5/5/4 25/29/4 83/95/4 73/85/4
f 9/9/5 10/10/5 80/92/5 79/91/5
f 2/2/5 9/9/5 79/91/5 70/82/5
f 12/12/3 77/89/3 78/90/3 11/11/3
f 3/3/3 72/84/3 77/89/3 12/12/3
f 26/30/4 6/6/4 74/86/4 84/96/4
f 3/3/4 5/5/4 73/85/4 72/84/4
f 43/51/3 86/98/3 71/83/3 4/4/3
f 6/6/4 2/2/4 70/82/4 74/86/4
f 42/50/5 1/1/5 69/81/5 88/100/5
f 135/155/14 130/150/14 89/101/14 95/107/14
f 76/88/2 95/107/2 89/101/2 69/81/2
f 71/83/2 92/104/2 96/108/2 75/87/2
f 82/94/2 115/131/2 95/107/2 76/88/2
f 131/151/14 133/153/14 96/108/14 92/104/14
f 139/161/14 135/155/14 95/107/14 115/131/14
f 114/130/14 94/106/14 104/116/14 118/134/14
f 103/115/3 107/119/3 108/120/3 104/116/3
f 91/103/14 93/105/14 102/114/14 100/112/14
f 100/112/14 102/114/14 101/113/14 99/111/14
f 120/136/3 124/140/3 107/119/3 103/115/3
f 94/106/14 90/102/14 97/109/14 104/116/14
f 104/116/14 97/109/14 98/110/14 103/115/14
f 124/140/4 128/148/4 111/126/4 107/119/4
f 102/114/3 106/118/3 105/117/3 101/113/3
f 117/133/3 121/137/3 106/118/3 102/114/3
f 126/144/14 112/127/14 111/125/14 128/147/14
f 107/119/3 111/126/3 112/128/3 108/120/3
f 121/137/2 125/141/2 110/123/2 106/118/2
f 106/118/5 110/123/5 109/122/5 105/117/5
f 108/120/2 112/128/2 126/143/2 122/138/2
f 122/138/2 126/143/2 125/141/2 121/137/2
f 110/124/14 125/142/14 127/145/14 109/121/14
f 125/142/14 126/144/14 128/147/14 127/145/14
f 104/116/3 108/120/3 122/138/3 118/134/3
f 118/134/3 122/138/3 121/137/3 117/133/3
f 105/117/4 109/122/4 127/146/4 123/139/4
f 123/139/4 127/146/4 128/148/4 124/140/4
f 101/113/3 105/117/3 123/139/3 119/135/3
f 119/135/3 123/139/3 124/140/3 120/136/3
f 93/105/14 113/129/14 117/133/14 102/114/14
f 113/129/14 114/130/14 118/134/14 117/133/14
f 133/153/14 137/157/14 116/132/14 96/108/14
f 137/157/14 139/161/14 115/131/14 116/132/14
f 75/87/2 96/108/2 116/132/2 81/93/2
f 81/93/2 116/132/2 115/131/2 82/94/2
f 119/135/14 120/136/14 140/163/14 138/159/14
f 140/164/15 144/168/15 142/166/15 138/160/15
f 101/113/14 119/135/14 138/159/14 134/154/14
f 134/154/14 138/159/14 137/157/14 133/153/14
f 120/136/14 103/115/14 136/156/14 140/163/14
f 140/163/14 136/156/14 135/155/14 139/161/14
f 99/111/14 101/113/14 134/154/14 132/152/14
f 132/152/14 134/154/14 133/153/14 131/151/14
f 103/115/14 98/110/14 129/149/14 136/156/14
f 136/156/14 129/149/14 130/150/14 135/155/14
f 142/166/3 146/170/3 145/169/3 141/165/3
f 137/158/16 141/165/16 143/167/16 139/162/16
f 139/162/17 143/167/17 144/168/17 140/164/17
f 138/160/18 142/166/18 141/165/18 137/158/18
f 145/169/3 149/173/3 151/175/3 147/171/3
f 141/165/2 145/169/2 147/171/2 143/167/2
f 143/167/5 147/171/5 148/172/5 144/168/5
f 144/168/4 148/172/4 146/170/4 142/166/4
f 152/176/19 156/180/19 154/178/19 150/174/19
f 147/171/3 151/175/3 152/176/3 148/172/3
f 148/172/3 152/176/3 150/174/3 146/170/3
f 146/170/3 150/174/3 149/173/3 145/169/3
f 154/178/14 156/180/14 155/179/14 153/177/14
f 150/174/20 154/178/20 153/177/20 149/173/20
f 149/173/21 153/177/21 155/179/21 151/175/21
f 151/175/22 155/179/22 156/180/22 152/176/22
f 129/149/5 87/99/5 88/100/5 130/150/5
f 98/110/5 80/92/5 87/99/5 129/149/5
f 132/152/3 131/151/3 86/98/3 85/97/3
f 99/111/3 132/152/3 85/97/3 78/90/3
f 113/129/4 83/95/4 84/96/4 114/130/4
f 93/105/4 73/85/4 83/95/4 113/129/4
f 97/109/5 79/91/5 80/92/5 98/110/5
f 90/102/5 70/82/5 79/91/5 97/109/5
f 100/112/3 99/111/3 78/90/3 77/89/3
f 91/103/3 100/112/3 77/89/3 72/84/3
f 114/130/4 84/96/4 74/86/4 94/106/4
f 91/103/4 72/84/4 73/85/4 93/105/4
f 131/151/3 92/104/3 71/83/3 86/98/3
f 94/106/4 74/86/4 70/82/4 90/102/4
f 130/150/5 88/100/5 69/81/5 89/101/5
