# Blender 3.3.0
# www.blender.org
mtllib keyboard.mtl
o Keyboard
v -0.098796 0.000437 0.220500
v -0.098796 0.032679 0.220500
v -0.098796 0.000437 -0.220500
v -0.098796 0.032679 -0.220500
v 0.098796 0.000437 0.220500
v 0.098796 0.051436 0.220500
v 0.098796 0.000437 -0.220500
v 0.098796 0.051436 -0.220500
v 0.067608 0.000437 -0.220500
v 0.067608 0.078833 -0.220500
v 0.067608 0.000437 0.220500
v 0.067608 0.078833 0.220500
v -0.071241 0.000437 -0.220500
v -0.081759 0.053283 0.220500
v -0.081759 0.053283 -0.220500
v -0.071241 0.000437 0.220500
vn -1.0000 -0.0000 -0.0000
vn -0.0000 -0.0000 -1.0000
vn 1.0000 -0.0000 -0.0000
vn -0.0000 -0.0000 1.0000
vn -0.0000 -1.0000 -0.0000
vn -0.7707 0.6372 -0.0000
vn 0.6600 0.7513 -0.0000
vn -0.1686 0.9857 -0.0000
vt 0.434570 0.966797
vt 0.434570 0.966797
vt 0.434570 0.966797
vt 0.434570 0.966797
vt 0.434570 0.966797
vt 0.434570 0.966797
vt 0.434570 0.966797
vt 0.434570 0.966797
vt 0.434570 0.966797
vt 0.434570 0.966797
vt 0.016602 0.625977
vt 0.434570 0.966797
vt 0.463867 0.625977
vt 0.434570 0.966797
vt 0.434570 0.966797
vt 0.463867 0.471680
vt 0.434570 0.966797
vt 0.434570 0.966797
vt 0.016602 0.471680
vt 0.434570 0.966797
s 0
usemtl tex2
f 1/1/1 2/2/1 4/4/1 3/3/1
f 9/9/2 10/10/2 8/8/2 7/7/2
f 7/7/3 8/8/3 6/6/3 5/5/3
f 16/20/4 14/17/4 2/2/4 1/1/4
f 9/9/5 7/7/5 5/5/5 11/12/5
f 15/18/6 4/4/6 2/2/6 14/17/6
f 8/8/7 10/10/7 12/14/7 6/6/7
f 13/15/5 9/9/5 11/12/5 16/20/5
f 5/5/4 6/6/4 12/14/4 11/12/4
f 13/15/2 15/18/2 10/10/2 9/9/2
f 3/3/2 4/4/2 15/18/2 13/15/2
f 3/3/5 13/15/5 16/20/5 1/1/5
f 10/11/8 15/19/8 14/16/8 12/13/8
f 11/12/4 12/14/4 14/17/4 16/20/4
