# Blender 3.3.0
# www.blender.org
mtllib programmer.mtl
o Programmer
v -0.213549 -0.060000 -0.025911
v -0.213549 -0.003912 -0.025911
v 0.213549 -0.060000 -0.060000
v 0.213549 0.033881 -0.060000
v 0.165991 -0.060000 -0.122857
v 0.042710 -0.039011 -0.122857
v -0.042710 -0.037652 -0.060000
v -0.128129 -0.042106 -0.060000
v -0.128129 0.040481 -0.060000
v -0.042710 0.051680 -0.060000
v 0.042710 0.060000 -0.122857
v 0.165991 0.060000 -0.122857
v -0.213549 -0.060000 0.000000
v -0.213549 -0.003912 0.000000
v 0.213549 -0.060000 0.000000
v 0.213549 0.033881 0.000000
v 0.165991 0.060000 0.000000
v 0.042710 0.060000 0.000000
v -0.042710 0.051680 0.000000
v -0.128129 0.040481 0.000000
v -0.128129 -0.042106 0.000000
v -0.042710 -0.037652 0.000000
v 0.042710 -0.039011 0.000000
v 0.165991 -0.060000 0.000000
v -0.213549 -0.060000 0.025911
v -0.213549 -0.003912 0.025911
v 0.213549 -0.060000 0.060000
v 0.213549 0.033881 0.060000
v 0.165991 -0.060000 0.122857
v 0.042710 -0.039011 0.122857
v -0.042710 -0.037652 0.060000
v -0.128129 -0.042106 0.060000
v -0.128129 0.040481 0.060000
v -0.042710 0.051680 0.060000
v 0.042710 0.060000 0.122857
v 0.165991 0.060000 0.122857
vn -1.0000 -0.0000 -0.0000
vn 0.7975 -0.0000 -0.6034
vn -0.3707 -0.0000 -0.9288
vn -0.0000 -0.0000 -1.0000
vn -0.5927 -0.0000 -0.8054
vn -0.1678 -0.9858 -0.0000
vn -0.0159 -0.9999 -0.0000
vn 0.0521 -0.9986 -0.0000
vn -0.1300 0.9915 -0.0000
vn -0.0969 0.9953 -0.0000
vn -0.0000 1.0000 -0.0000
vn 0.4814 0.8765 -0.0000
vn 1.0000 -0.0000 -0.0000
vn -0.0000 -1.0000 -0.0000
vn -0.4611 0.8873 -0.0000
vn 0.2050 -0.9788 -0.0000
vn 0.7975 -0.0000 0.6034
vn -0.3707 -0.0000 0.9288
vn -0.0000 -0.0000 1.0000
vn -0.5927 -0.0000 0.8054
vt 0.446289 0.442383
vt 0.446289 0.442383
vt 0.548828 0.427734
vt 0.446289 0.442383
vt 0.522461 0.773438
vt 0.446289 0.442383
vt 0.446289 0.442383
vt 0.446289 0.442383
vt 0.446289 0.442383
vt 0.446289 0.442383
vt 0.446289 0.442383
vt 0.522461 0.502930
vt 0.446289 0.442383
vt 0.522461 0.569336
vt 0.446289 0.442383
vt 0.473633 0.635742
vt 0.446289 0.442383
vt 0.473633 0.731445
vt 0.446289 0.442383
vt 0.446289 0.442383
vt 0.568359 0.427734
vt 0.446289 0.442383
vt 0.568359 0.773438
vt 0.446289 0.442383
vt 0.568359 0.731445
vt 0.568359 0.635742
vt 0.568359 0.569336
vt 0.568359 0.502930
vt 0.446289 0.442383
vt 0.446289 0.442383
vt 0.446289 0.442383
vt 0.446289 0.442383
vt 0.446289 0.442383
vt 0.446289 0.442383
vt 0.588867 0.427734
vt 0.446289 0.442383
vt 0.615234 0.773438
vt 0.446289 0.442383
vt 0.446289 0.442383
vt 0.446289 0.442383
vt 0.446289 0.442383
vt 0.446289 0.442383
vt 0.446289 0.442383
vt 0.615234 0.502930
vt 0.446289 0.442383
vt 0.615234 0.569336
vt 0.446289 0.442383
vt 0.664062 0.635742
vt 0.446289 0.442383
vt 0.664062 0.731445
s 0
usemtl tex2
f 13/19/1 14/20/1 2/2/1 1/1/1
f 5/7/2 12/17/2 4/6/2 3/4/2
f 1/1/3 2/2/3 9/11/3 8/10/3
f 8/10/4 9/11/4 10/13/4 7/9/4
f 7/9/5 10/13/5 11/15/5 6/8/5
f 6/8/4 11/15/4 12/17/4 5/7/4
f 6/8/6 5/7/6 24/32/6 23/31/6
f 7/9/7 6/8/7 23/31/7 22/30/7
f 8/10/8 7/9/8 22/30/8 21/29/8
f 10/14/9 9/12/9 20/28/9 19/27/9
f 11/16/10 10/14/10 19/27/10 18/26/10
f 12/18/11 11/16/11 18/26/11 17/25/11
f 4/5/12 12/18/12 17/25/12 16/23/12
f 3/4/13 4/6/13 16/24/13 15/22/13
f 5/7/14 3/4/14 15/22/14 24/32/14
f 9/12/15 2/3/15 14/21/15 20/28/15
f 1/1/16 8/10/16 21/29/16 13/19/16
f 13/19/1 25/33/1 26/34/1 14/20/1
f 29/39/17 27/36/17 28/38/17 36/49/17
f 25/33/18 32/42/18 33/43/18 26/34/18
f 32/42/19 31/41/19 34/45/19 33/43/19
f 31/41/20 30/40/20 35/47/20 34/45/20
f 30/40/19 29/39/19 36/49/19 35/47/19
f 30/40/6 23/31/6 24/32/6 29/39/6
f 31/41/7 22/30/7 23/31/7 30/40/7
f 32/42/8 21/29/8 22/30/8 31/41/8
f 34/46/9 19/27/9 20/28/9 33/44/9
f 35/48/10 18/26/10 19/27/10 34/46/10
f 36/50/11 17/25/11 18/26/11 35/48/11
f 28/37/12 16/23/12 17/25/12 36/50/12
f 27/36/13 15/22/13 16/24/13 28/38/13
f 29/39/14 24/32/14 15/22/14 27/36/14
f 33/44/15 20/28/15 14/21/15 26/35/15
f 25/33/16 13/19/16 21/29/16 32/42/16
