# Blender 3.3.0
# www.blender.org
mtllib railing.mtl
o Railing
v 0.000000 0.000000 -0.100000
v 0.000000 0.850000 -0.100000
v 0.070711 0.000000 -0.070711
v 0.070711 0.850000 -0.070711
v 0.100000 0.000000 0.000000
v 0.100000 0.850000 0.000000
v 0.070711 0.000000 0.070711
v 0.070711 0.850000 0.070711
v 0.000000 0.000000 0.100000
v 0.000000 0.850000 0.100000
v -0.070711 0.000000 0.070711
v -0.070711 0.850000 0.070711
v -0.100000 0.000000 0.000000
v -0.100000 0.850000 0.000000
v -0.070711 0.000000 -0.070711
v -0.070711 0.850000 -0.070711
v 0.000000 0.950000 -0.050000
v 0.000000 0.950000 0.050000
v 0.070711 0.920711 -0.050000
v 0.070711 0.920711 0.050000
v 0.100000 0.850000 -0.050000
v 0.100000 0.850000 0.050000
v 0.070711 0.779289 -0.050000
v 0.070711 0.779289 0.050000
v 0.000000 0.750000 -0.050000
v 0.000000 0.750000 0.050000
v -0.070711 0.779289 -0.050000
v -0.070711 0.779289 0.050000
v -0.100000 0.850000 -0.050000
v -0.100000 0.850000 0.050000
v -0.070711 0.920711 -0.050000
v -0.070711 0.920711 0.050000
v -0.000000 0.950000 -1.000000
v 0.070711 0.920711 -1.000000
v 0.100000 0.850000 -1.000000
v 0.070711 0.779290 -1.000000
v -0.000000 0.750000 -1.000000
v -0.070711 0.779290 -1.000000
v -0.100000 0.850000 -1.000000
v -0.070711 0.920711 -1.000000
v 0.070711 0.920711 1.000000
v 0.000000 0.950000 1.000000
v 0.100000 0.850000 1.000000
v 0.070711 0.779289 1.000000
v 0.000000 0.750000 1.000000
v -0.070711 0.779289 1.000000
v -0.100000 0.850000 1.000000
v -0.070711 0.920711 1.000000
vn 0.3827 -0.0000 -0.9239
vn 0.9239 -0.0000 -0.3827
vn 0.9239 -0.0000 0.3827
vn 0.3827 -0.0000 0.9239
vn -0.3827 -0.0000 0.9239
vn -0.9239 -0.0000 0.3827
vn -0.0000 1.0000 -0.0000
vn -0.9239 -0.0000 -0.3827
vn -0.3827 -0.0000 -0.9239
vn -0.0000 -1.0000 -0.0000
vn 0.3827 0.9239 -0.0000
vn 0.9239 0.3827 -0.0000
vn 0.9239 -0.3827 -0.0000
vn 0.3827 -0.9239 -0.0000
vn -0.3827 -0.9239 -0.0000
vn -0.9239 -0.3827 -0.0000
vn -0.9239 0.3827 -0.0000
vn -0.3827 0.9239 -0.0000
vn -0.0000 -0.0000 -1.0000
vn -0.0000 -0.0000 1.0000
vt 0.723633 0.951172
vt 0.723633 0.951172
vt 0.723633 0.951172
vt 0.723633 0.951172
vt 0.723633 0.951172
vt 0.723633 0.951172
vt 0.723633 0.951172
vt 0.723633 0.951172
vt 0.723633 0.951172
vt 0.723633 0.951172
vt 0.723633 0.951172
vt 0.723633 0.951172
vt 0.723633 0.951172
vt 0.723633 0.951172
vt 0.723633 0.951172
vt 0.723633 0.951172
vt 0.723633 0.951172
vt 0.723633 0.951172
vt 0.723633 0.951172
vt 0.723633 0.951172
vt 0.723633 0.951172
vt 0.723633 0.951172
vt 0.723633 0.951172
vt 0.723633 0.951172
vt 0.723633 0.951172
vt 0.723633 0.951172
vt 0.723633 0.951172
vt 0.723633 0.951172
vt 0.723633 0.951172
vt 0.723633 0.951172
vt 0.723633 0.951172
vt 0.723633 0.951172
vt 0.723633 0.951172
vt 0.723633 0.951172
vt 0.723633 0.951172
vt 0.723633 0.951172
vt 0.723633 0.951172
vt 0.723633 0.951172
vt 0.723633 0.951172
vt 0.723633 0.951172
vt 0.723633 0.951172
vt 0.723633 0.951172
vt 0.723633 0.951172
vt 0.723633 0.951172
vt 0.723633 0.951172
vt 0.723633 0.951172
vt 0.723633 0.951172
vt 0.723633 0.951172
s 0
usemtl Wall
f 1/1/1 2/2/1 4/4/1 3/3/1
f 3/3/2 4/4/2 6/6/2 5/5/2
f 5/5/3 6/6/3 8/8/3 7/7/3
f 7/7/4 8/8/4 10/10/4 9/9/4
f 9/9/5 10/10/5 12/12/5 11/11/5
f 11/11/6 12/12/6 14/14/6 13/13/6
f 4/4/7 2/2/7 16/16/7 14/14/7 12/12/7 10/10/7 8/8/7 6/6/7
f 13/13/8 14/14/8 16/16/8 15/15/8
f 15/15/9 16/16/9 2/2/9 1/1/9
f 1/1/10 3/3/10 5/5/10 7/7/10 9/9/10 11/11/10 13/13/10 15/15/10
f 17/17/11 18/18/11 20/20/11 19/19/11
f 19/19/12 20/20/12 22/22/12 21/21/12
f 21/21/13 22/22/13 24/24/13 23/23/13
f 23/23/14 24/24/14 26/26/14 25/25/14
f 25/25/15 26/26/15 28/28/15 27/27/15
f 27/27/16 28/28/16 30/30/16 29/29/16
f 26/26/14 24/24/14 44/44/14 45/45/14
f 29/29/17 30/30/17 32/32/17 31/31/17
f 31/31/18 32/32/18 18/18/18 17/17/18
f 19/19/12 21/21/12 35/35/12 34/34/12
f 33/33/19 34/34/19 35/35/19 36/36/19 37/37/19 38/38/19 39/39/19 40/40/19
f 25/25/15 27/27/15 38/38/15 37/37/15
f 31/31/18 17/17/18 33/33/18 40/40/18
f 17/17/11 19/19/11 34/34/11 33/33/11
f 21/21/13 23/23/13 36/36/13 35/35/13
f 27/27/16 29/29/16 39/39/16 38/38/16
f 23/23/14 25/25/14 37/37/14 36/36/14
f 29/29/17 31/31/17 40/40/17 39/39/17
f 41/41/20 42/42/20 48/48/20 47/47/20 46/46/20 45/45/20 44/44/20 43/43/20
f 32/32/17 30/30/17 47/47/17 48/48/17
f 22/22/12 20/20/12 41/41/12 43/43/12
f 28/28/15 26/26/15 45/45/15 46/46/15
f 18/18/18 32/32/18 48/48/18 42/42/18
f 20/20/11 18/18/11 42/42/11 41/41/11
f 24/24/13 22/22/13 43/43/13 44/44/13
f 30/30/16 28/28/16 46/46/16 47/47/16
