# Blender 3.3.0
# www.blender.org
mtllib table.mtl
o Desk1
v -0.400000 0.000000 0.850000
v -0.400000 0.750000 0.850000
v -0.400000 0.750000 -0.850000
v 0.400000 0.000000 0.850000
v 0.400000 0.750000 0.850000
v 0.400000 0.750000 -0.850000
v -0.400000 0.000000 0.850000
v -0.400000 0.750000 0.850000
v -0.400000 0.750000 -0.850000
v 0.400000 0.750000 -0.850000
v 0.400000 0.750000 0.850000
v 0.400000 0.000000 0.850000
v -0.400000 0.000000 0.354977
v -0.400000 0.750000 0.354977
v 0.400000 0.000000 0.354977
v 0.400000 0.750000 0.354977
v -0.400000 0.684038 0.850000
v -0.400000 0.684038 -0.850000
v 0.400000 0.684038 -0.850000
v 0.400000 0.684038 0.850000
v -0.400000 0.684038 0.850000
v -0.400000 0.684038 -0.850000
v 0.400000 0.684038 -0.850000
v 0.400000 0.684038 0.850000
v 0.400000 0.684038 0.354977
v -0.400000 0.684038 0.354977
vn -1.0000 -0.0000 -0.0000
vn 1.0000 -0.0000 -0.0000
vn -0.0000 1.0000 -0.0000
vn -0.0000 -1.0000 -0.0000
vn -0.0000 -0.0000 -1.0000
vn -0.0000 -0.0000 1.0000
vt 0.647461 0.960938
vt 0.989258 0.688477
vt 0.647461 0.960938
vt 0.649414 0.972656
vt 0.647461 0.960938
vt 0.647461 0.960938
vt 0.647461 0.960938
vt 0.649414 0.972656
vt 0.647461 0.960938
vt 0.649414 0.972656
vt 0.647461 0.960938
vt 0.647461 0.960938
vt 0.647461 0.960938
vt 0.649414 0.972656
vt 0.647461 0.960938
vt 0.649414 0.972656
vt 0.647461 0.960938
vt 0.649414 0.972656
vt 0.647461 0.960938
vt 0.773438 0.688477
vt 0.647461 0.960938
vt 0.647461 0.960938
vt 0.647461 0.960938
vt 0.647461 0.960938
vt 0.989258 0.987305
vt 0.647461 0.960938
vt 0.649414 0.972656
vt 0.647461 0.960938
vt 0.647461 0.960938
vt 0.649414 0.972656
vt 0.649414 0.972656
vt 0.647461 0.960938
vt 0.647461 0.960938
vt 0.647461 0.960938
vt 0.649414 0.972656
vt 0.647461 0.960938
vt 0.649414 0.972656
vt 0.649414 0.972656
vt 0.647461 0.960938
vt 0.647461 0.960938
vt 0.773438 0.987305
vt 0.647461 0.960938
s 0
usemtl Wall
f 26/42/1 14/22/1 3/5/1 18/28/1
f 25/40/2 16/24/2 5/7/2 20/32/2
f 1/1/3 4/6/3 12/19/3 7/11/3
f 13/21/4 15/23/4 4/6/4 1/1/4
f 16/24/3 14/22/3 2/3/3 5/7/3
f 22/34/5 9/13/5 10/15/5 23/36/5
f 24/39/6 11/17/6 8/12/6 21/33/6
f 5/7/3 2/3/3 8/12/3 11/17/3
f 20/31/3 5/8/3 11/18/3 24/38/3
f 3/4/3 6/10/3 10/16/3 9/14/3
f 18/27/3 3/4/3 9/14/3 22/35/3
f 17/26/3 1/1/3 7/11/3 21/33/3
f 6/9/3 3/5/3 14/22/3 16/24/3
f 19/29/2 6/9/2 16/24/2 25/40/2
f 17/26/1 2/3/1 14/22/1 26/42/1
f 1/2/1 17/25/1 26/41/1 13/20/1
f 18/28/4 19/29/4 25/40/4 26/42/4
f 2/3/3 17/26/3 21/33/3 8/12/3
f 4/6/3 20/32/3 24/39/3 12/19/3
f 12/19/6 24/39/6 21/33/6 7/11/6
f 26/42/5 25/40/5 15/23/5 13/21/5
f 15/23/2 25/40/2 20/32/2 4/6/2
f 6/10/3 19/30/3 23/37/3 10/16/3
o DeskLeg
v -0.340756 0.000000 -0.833661
v -0.340756 0.690848 -0.833661
v -0.332953 0.000000 -0.832892
v -0.332953 0.690848 -0.832892
v -0.325449 0.000000 -0.830616
v -0.325449 0.690848 -0.830616
v -0.318534 0.000000 -0.826920
v -0.318534 0.690848 -0.826920
v -0.312472 0.000000 -0.821945
v -0.312472 0.690848 -0.821945
v -0.307498 0.000000 -0.815884
v -0.307498 0.690848 -0.815884
v -0.303801 0.000000 -0.808968
v -0.303801 0.690848 -0.808968
v -0.301525 0.000000 -0.801465
v -0.301525 0.690848 -0.801465
v -0.300756 0.000000 -0.793661
v -0.300756 0.690848 -0.793661
v -0.301525 0.000000 -0.785857
v -0.301525 0.690848 -0.785857
v -0.303801 0.000000 -0.778354
v -0.303801 0.690848 -0.778354
v -0.307498 0.000000 -0.771438
v -0.307498 0.690848 -0.771438
v -0.312472 0.000000 -0.765377
v -0.312472 0.690848 -0.765377
v -0.318534 0.000000 -0.760402
v -0.318534 0.690848 -0.760402
v -0.325449 0.000000 -0.756706
v -0.325449 0.690848 -0.756706
v -0.332953 0.000000 -0.754430
v -0.332953 0.690848 -0.754430
v -0.340756 0.000000 -0.753661
v -0.340756 0.690848 -0.753661
v -0.348560 0.000000 -0.754430
v -0.348560 0.690848 -0.754430
v -0.356064 0.000000 -0.756706
v -0.356064 0.690848 -0.756706
v -0.362979 0.000000 -0.760402
v -0.362979 0.690848 -0.760402
v -0.369041 0.000000 -0.765377
v -0.369041 0.690848 -0.765377
v -0.374015 0.000000 -0.771438
v -0.374015 0.690848 -0.771438
v -0.377712 0.000000 -0.778354
v -0.377712 0.690848 -0.778354
v -0.379988 0.000000 -0.785857
v -0.379988 0.690848 -0.785857
v -0.380756 0.000000 -0.793661
v -0.380756 0.690848 -0.793661
v -0.379988 0.000000 -0.801465
v -0.379988 0.690848 -0.801465
v -0.377712 0.000000 -0.808968
v -0.377712 0.690848 -0.808968
v -0.374015 0.000000 -0.815884
v -0.374015 0.690848 -0.815884
v -0.369041 0.000000 -0.821945
v -0.369041 0.690848 -0.821945
v -0.362979 0.000000 -0.826920
v -0.362979 0.690848 -0.826920
v -0.356064 0.000000 -0.830616
v -0.356064 0.690848 -0.830616
v -0.348560 0.000000 -0.832892
v -0.348560 0.690848 -0.832892
v 0.340756 0.000000 -0.833661
v 0.340756 0.690848 -0.833661
v 0.332953 0.000000 -0.832892
v 0.332953 0.690848 -0.832892
v 0.325449 0.000000 -0.830616
v 0.325449 0.690848 -0.830616
v 0.318534 0.000000 -0.826920
v 0.318534 0.690848 -0.826920
v 0.312472 0.000000 -0.821945
v 0.312472 0.690848 -0.821945
v 0.307498 0.000000 -0.815884
v 0.307498 0.690848 -0.815884
v 0.303801 0.000000 -0.808968
v 0.303801 0.690848 -0.808968
v 0.301525 0.000000 -0.801465
v 0.301525 0.690848 -0.801465
v 0.300756 0.000000 -0.793661
v 0.300756 0.690848 -0.793661
v 0.301525 0.000000 -0.785857
v 0.301525 0.690848 -0.785857
v 0.303801 0.000000 -0.778354
v 0.303801 0.690848 -0.778354
v 0.307498 0.000000 -0.771438
v 0.307498 0.690848 -0.771438
v 0.312472 0.000000 -0.765377
v 0.312472 0.690848 -0.765377
v 0.318534 0.000000 -0.760402
v 0.318534 0.690848 -0.760402
v 0.325449 0.000000 -0.756706
v 0.325449 0.690848 -0.756706
v 0.332953 0.000000 -0.754430
v 0.332953 0.690848 -0.754430
v 0.340756 0.000000 -0.753661
v 0.340756 0.690848 -0.753661
v 0.348560 0.000000 -0.754430
v 0.348560 0.690848 -0.754430
v 0.356064 0.000000 -0.756706
v 0.356064 0.690848 -0.756706
v 0.362979 0.000000 -0.760402
v 0.362979 0.690848 -0.760402
v 0.369041 0.000000 -0.765377
v 0.369041 0.690848 -0.765377
v 0.374015 0.000000 -0.771438
v 0.374015 0.690848 -0.771438
v 0.377712 0.000000 -0.778354
v 0.377712 0.690848 -0.778354
v 0.379988 0.000000 -0.785857
v 0.379988 0.690848 -0.785857
v 0.380756 0.000000 -0.793661
v 0.380756 0.690848 -0.793661
v 0.379988 0.000000 -0.801465
v 0.379988 0.690848 -0.801465
v 0.377712 0.000000 -0.808968
v 0.377712 0.690848 -0.808968
v 0.374015 0.000000 -0.815884
v 0.374015 0.690848 -0.815884
v 0.369041 0.000000 -0.821945
v 0.369041 0.690848 -0.821945
v 0.362979 0.000000 -0.826920
v 0.362979 0.690848 -0.826920
v 0.356064 0.000000 -0.830616
v 0.356064 0.690848 -0.830616
v 0.348560 0.000000 -0.832892
v 0.348560 0.690848 -0.832892
vn 0.0980 -0.0000 -0.9952
vn 0.2903 -0.0000 -0.9569
vn 0.4714 -0.0000 -0.8819
vn 0.6344 -0.0000 -0.7730
vn 0.7730 -0.0000 -0.6344
vn 0.8819 -0.0000 -0.4714
vn 0.9569 -0.0000 -0.2903
vn 0.9952 -0.0000 -0.0980
vn 0.9952 -0.0000 0.0980
vn 0.9569 -0.0000 0.2903
vn 0.8819 -0.0000 0.4714
vn 0.7730 -0.0000 0.6344
vn 0.6344 -0.0000 0.7730
vn 0.4714 -0.0000 0.8819
vn 0.2903 -0.0000 0.9569
vn 0.0980 -0.0000 0.9952
vn -0.0980 -0.0000 0.9952
vn -0.2903 -0.0000 0.9569
vn -0.4714 -0.0000 0.8819
vn -0.6344 -0.0000 0.7730
vn -0.7730 -0.0000 0.6344
vn -0.8819 -0.0000 0.4714
vn -0.9569 -0.0000 0.2903
vn -0.9952 -0.0000 0.0980
vn -0.9952 -0.0000 -0.0980
vn -0.9569 -0.0000 -0.2903
vn -0.8819 -0.0000 -0.4714
vn -0.7730 -0.0000 -0.6344
vn -0.6344 -0.0000 -0.7730
vn -0.4714 -0.0000 -0.8819
vn -0.0000 1.0000 -0.0000
vn -0.2903 -0.0000 -0.9569
vn -0.0980 -0.0000 -0.9952
vn -0.0000 -1.0000 -0.0000
vt 0.112305 0.885742
vt 0.112305 0.885742
vt 0.112305 0.885742
vt 0.112305 0.885742
vt 0.112305 0.885742
vt 0.112305 0.885742
vt 0.112305 0.885742
vt 0.112305 0.885742
vt 0.112305 0.885742
vt 0.112305 0.885742
vt 0.112305 0.885742
vt 0.112305 0.885742
vt 0.112305 0.885742
vt 0.112305 0.885742
vt 0.112305 0.885742
vt 0.112305 0.885742
vt 0.112305 0.885742
vt 0.112305 0.885742
vt 0.112305 0.885742
vt 0.112305 0.885742
vt 0.112305 0.885742
vt 0.112305 0.885742
vt 0.112305 0.885742
vt 0.112305 0.885742
vt 0.112305 0.885742
vt 0.112305 0.885742
vt 0.112305 0.885742
vt 0.112305 0.885742
vt 0.112305 0.885742
vt 0.112305 0.885742
vt 0.112305 0.885742
vt 0.112305 0.885742
vt 0.112305 0.885742
vt 0.112305 0.885742
vt 0.112305 0.885742
vt 0.112305 0.885742
vt 0.112305 0.885742
vt 0.112305 0.885742
vt 0.112305 0.885742
vt 0.112305 0.885742
vt 0.112305 0.885742
vt 0.112305 0.885742
vt 0.112305 0.885742
vt 0.112305 0.885742
vt 0.112305 0.885742
vt 0.112305 0.885742
vt 0.112305 0.885742
vt 0.112305 0.885742
vt 0.112305 0.885742
vt 0.112305 0.885742
vt 0.112305 0.885742
vt 0.112305 0.885742
vt 0.112305 0.885742
vt 0.112305 0.885742
vt 0.112305 0.885742
vt 0.112305 0.885742
vt 0.112305 0.885742
vt 0.112305 0.885742
vt 0.112305 0.885742
vt 0.112305 0.885742
vt 0.112305 0.885742
vt 0.112305 0.885742
vt 0.112305 0.885742
vt 0.112305 0.885742
vt 0.112305 0.885742
vt 0.112305 0.885742
vt 0.112305 0.885742
vt 0.112305 0.885742
vt 0.112305 0.885742
vt 0.112305 0.885742
vt 0.112305 0.885742
vt 0.112305 0.885742
vt 0.112305 0.885742
vt 0.112305 0.885742
vt 0.112305 0.885742
vt 0.112305 0.885742
vt 0.112305 0.885742
vt 0.112305 0.885742
vt 0.112305 0.885742
vt 0.112305 0.885742
vt 0.112305 0.885742
vt 0.112305 0.885742
vt 0.112305 0.885742
vt 0.112305 0.885742
vt 0.112305 0.885742
vt 0.112305 0.885742
vt 0.112305 0.885742
vt 0.112305 0.885742
vt 0.112305 0.885742
vt 0.112305 0.885742
vt 0.112305 0.885742
vt 0.112305 0.885742
vt 0.112305 0.885742
vt 0.112305 0.885742
vt 0.112305 0.885742
vt 0.112305 0.885742
vt 0.112305 0.885742
vt 0.112305 0.885742
vt 0.112305 0.885742
vt 0.112305 0.885742
vt 0.112305 0.885742
vt 0.112305 0.885742
vt 0.112305 0.885742
vt 0.112305 0.885742
vt 0.112305 0.885742
vt 0.112305 0.885742
vt 0.112305 0.885742
vt 0.112305 0.885742
vt 0.112305 0.885742
vt 0.112305 0.885742
vt 0.112305 0.885742
vt 0.112305 0.885742
vt 0.112305 0.885742
vt 0.112305 0.885742
vt 0.112305 0.885742
vt 0.112305 0.885742
vt 0.112305 0.885742
vt 0.112305 0.885742
vt 0.112305 0.885742
vt 0.112305 0.885742
vt 0.112305 0.885742
vt 0.112305 0.885742
vt 0.112305 0.885742
vt 0.112305 0.885742
vt 0.112305 0.885742
vt 0.112305 0.885742
vt 0.112305 0.885742
vt 0.112305 0.885742
s 0
usemtl Wall
f 27/43/7 28/44/7 30/46/7 29/45/7
f 29/45/8 30/46/8 32/48/8 31/47/8
f 31/47/9 32/48/9 34/50/9 33/49/9
f 33/49/10 34/50/10 36/52/10 35/51/10
f 35/51/11 36/52/11 38/54/11 37/53/11
f 37/53/12 38/54/12 40/56/12 39/55/12
f 39/55/13 40/56/13 42/58/13 41/57/13
f 41/57/14 42/58/14 44/60/14 43/59/14
f 43/59/15 44/60/15 46/62/15 45/61/15
f 45/61/16 46/62/16 48/64/16 47/63/16
f 47/63/17 48/64/17 50/66/17 49/65/17
f 49/65/18 50/66/18 52/68/18 51/67/18
f 51/67/19 52/68/19 54/70/19 53/69/19
f 53/69/20 54/70/20 56/72/20 55/71/20
f 55/71/21 56/72/21 58/74/21 57/73/21
f 57/73/22 58/74/22 60/76/22 59/75/22
f 59/75/23 60/76/23 62/78/23 61/77/23
f 61/77/24 62/78/24 64/80/24 63/79/24
f 63/79/25 64/80/25 66/82/25 65/81/25
f 65/81/26 66/82/26 68/84/26 67/83/26
f 67/83/27 68/84/27 70/86/27 69/85/27
f 69/85/28 70/86/28 72/88/28 71/87/28
f 71/87/29 72/88/29 74/90/29 73/89/29
f 73/89/30 74/90/30 76/92/30 75/91/30
f 75/91/31 76/92/31 78/94/31 77/93/31
f 77/93/32 78/94/32 80/96/32 79/95/32
f 79/95/33 80/96/33 82/98/33 81/97/33
f 81/97/34 82/98/34 84/100/34 83/99/34
f 83/99/35 84/100/35 86/102/35 85/101/35
f 85/101/36 86/102/36 88/104/36 87/103/36
f 30/46/37 28/44/37 90/106/37 88/104/37 86/102/37 84/100/37 82/98/37 80/96/37 78/94/37 76/92/37 74/90/37 72/88/37 70/86/37 68/84/37 66/82/37 64/80/37 62/78/37 60/76/37 58/74/37 56/72/37 54/70/37 52/68/37 50/66/37 48/64/37 46/62/37 44/60/37 42/58/37 40/56/37 38/54/37 36/52/37 34/50/37 32/48/37
f 87/103/38 88/104/38 90/106/38 89/105/38
f 89/105/39 90/106/39 28/44/39 27/43/39
f 27/43/40 29/45/40 31/47/40 33/49/40 35/51/40 37/53/40 39/55/40 41/57/40 43/59/40 45/61/40 47/63/40 49/65/40 51/67/40 53/69/40 55/71/40 57/73/40 59/75/40 61/77/40 63/79/40 65/81/40 67/83/40 69/85/40 71/87/40 73/89/40 75/91/40 77/93/40 79/95/40 81/97/40 83/99/40 85/101/40 87/103/40 89/105/40
f 91/107/39 93/109/39 94/110/39 92/108/39
f 93/109/38 95/111/38 96/112/38 94/110/38
f 95/111/36 97/113/36 98/114/36 96/112/36
f 97/113/35 99/115/35 100/116/35 98/114/35
f 99/115/34 101/117/34 102/118/34 100/116/34
f 101/117/33 103/119/33 104/120/33 102/118/33
f 103/119/32 105/121/32 106/122/32 104/120/32
f 105/121/31 107/123/31 108/124/31 106/122/31
f 107/123/30 109/125/30 110/126/30 108/124/30
f 109/125/29 111/127/29 112/128/29 110/126/29
f 111/127/28 113/129/28 114/130/28 112/128/28
f 113/129/27 115/131/27 116/132/27 114/130/27
f 115/131/26 117/133/26 118/134/26 116/132/26
f 117/133/25 119/135/25 120/136/25 118/134/25
f 119/135/24 121/137/24 122/138/24 120/136/24
f 121/137/23 123/139/23 124/140/23 122/138/23
f 123/139/22 125/141/22 126/142/22 124/140/22
f 125/141/21 127/143/21 128/144/21 126/142/21
f 127/143/20 129/145/20 130/146/20 128/144/20
f 129/145/19 131/147/19 132/148/19 130/146/19
f 131/147/18 133/149/18 134/150/18 132/148/18
f 133/149/17 135/151/17 136/152/17 134/150/17
f 135/151/16 137/153/16 138/154/16 136/152/16
f 137/153/15 139/155/15 140/156/15 138/154/15
f 139/155/14 141/157/14 142/158/14 140/156/14
f 141/157/13 143/159/13 144/160/13 142/158/13
f 143/159/12 145/161/12 146/162/12 144/160/12
f 145/161/11 147/163/11 148/164/11 146/162/11
f 147/163/10 149/165/10 150/166/10 148/164/10
f 149/165/9 151/167/9 152/168/9 150/166/9
f 94/110/37 96/112/37 98/114/37 100/116/37 102/118/37 104/120/37 106/122/37 108/124/37 110/126/37 112/128/37 114/130/37 116/132/37 118/134/37 120/136/37 122/138/37 124/140/37 126/142/37 128/144/37 130/146/37 132/148/37 134/150/37 136/152/37 138/154/37 140/156/37 142/158/37 144/160/37 146/162/37 148/164/37 150/166/37 152/168/37 154/170/37 92/108/37
f 151/167/8 153/169/8 154/170/8 152/168/8
f 153/169/7 91/107/7 92/108/7 154/170/7
f 91/107/40 153/169/40 151/167/40 149/165/40 147/163/40 145/161/40 143/159/40 141/157/40 139/155/40 137/153/40 135/151/40 133/149/40 131/147/40 129/145/40 127/143/40 125/141/40 123/139/40 121/137/40 119/135/40 117/133/40 115/131/40 113/129/40 111/127/40 109/125/40 107/123/40 105/121/40 103/119/40 101/117/40 99/115/40 97/113/40 95/111/40 93/109/40
