# Blender 3.3.0
# www.blender.org
mtllib teleporter.mtl
o Teleporter
v 0.000000 0.000000 -0.400000
v 0.000000 0.100000 -0.266301
v 0.282843 0.000000 -0.282843
v 0.188304 0.100000 -0.188304
v 0.400000 0.000000 0.000000
v 0.266301 0.100000 0.000000
v 0.282843 0.000000 0.282843
v 0.188304 0.100000 0.188304
v 0.000000 0.000000 0.400000
v 0.000000 0.100000 0.266301
v -0.282843 0.000000 0.282843
v -0.188304 0.100000 0.188304
v -0.400000 0.000000 0.000000
v -0.266301 0.100000 0.000000
v -0.282843 0.000000 -0.282843
v -0.188304 0.100000 -0.188304
v 0.282843 0.076522 -0.282843
v 0.000000 0.076522 -0.400000
v 0.400000 0.076522 0.000000
v 0.282843 0.076522 0.282843
v 0.000000 0.076522 0.400000
v -0.282843 0.076522 0.282843
v -0.400000 0.076522 0.000000
v -0.282843 0.076522 -0.282843
v 0.201810 0.100000 -0.201810
v 0.000000 0.100000 -0.285402
v 0.285402 0.100000 0.000000
v 0.201810 0.100000 0.201810
v 0.000000 0.100000 0.285402
v -0.201810 0.100000 0.201810
v -0.285402 0.100000 0.000000
v -0.201810 0.100000 -0.201810
v 0.188304 0.070000 -0.188304
v 0.000000 0.070000 -0.266301
v 0.266301 0.070000 0.000000
v 0.188304 0.070000 0.188304
v 0.000000 0.070000 0.266301
v -0.188304 0.070000 0.188304
v -0.266301 0.070000 0.000000
v -0.188304 0.070000 -0.188304
v -0.170700 0.002859 -0.406932
v 0.170700 0.002859 -0.406932
v 0.170700 0.002859 -0.276043
v -0.170700 0.002859 -0.276043
v 0.170700 0.159670 -0.406932
v -0.170700 0.159670 -0.276043
v -0.170700 0.159670 -0.406932
v 0.170700 0.159670 -0.276043
v -0.170700 0.002859 -0.276043
v 0.170700 0.002859 -0.276043
v 0.170700 0.002859 -0.406932
v -0.170700 0.002859 -0.406932
vn 0.3827 -0.0000 -0.9239
vn 0.9239 -0.0000 -0.3827
vn 0.9239 -0.0000 0.3827
vn 0.3827 -0.0000 0.9239
vn -0.3827 -0.0000 0.9239
vn -0.9239 -0.0000 0.3827
vn -0.3827 -0.0000 -0.9239
vn -0.9239 -0.0000 -0.3827
vn -0.0000 -1.0000 -0.0000
vn 0.0828 0.9763 -0.2000
vn 0.2000 0.9763 -0.0828
vn 0.2000 0.9763 0.0828
vn 0.0828 0.9763 0.2000
vn -0.0828 0.9763 0.2000
vn -0.2000 0.9763 0.0828
vn -0.2000 0.9763 -0.0828
vn -0.0828 0.9763 -0.2000
vn -0.0000 1.0000 -0.0000
vn -0.0000 -0.0000 -1.0000
vn -0.0000 -0.0000 1.0000
vn 1.0000 -0.0000 -0.0000
vn -1.0000 -0.0000 -0.0000
vt 0.181641 0.962891
vt 0.181641 0.962891
vt 0.181641 0.962891
vt 0.181641 0.962891
vt 0.181641 0.962891
vt 0.181641 0.962891
vt 0.181641 0.962891
vt 0.181641 0.962891
vt 0.181641 0.962891
vt 0.181641 0.962891
vt 0.181641 0.962891
vt 0.181641 0.962891
vt 0.181641 0.962891
vt 0.181641 0.962891
vt 0.181641 0.962891
vt 0.181641 0.962891
vt 0.181641 0.962891
vt 0.260742 0.864258
vt 0.181641 0.962891
vt 0.181641 0.962891
vt 0.715820 0.864258
vt 0.260742 0.864258
vt 0.181641 0.962891
vt 0.715820 0.864258
vt 0.260742 0.864258
vt 0.181641 0.962891
vt 0.715820 0.864258
vt 0.260742 0.864258
vt 0.181641 0.962891
vt 0.715820 0.864258
vt 0.260742 0.864258
vt 0.181641 0.962891
vt 0.715820 0.864258
vt 0.260742 0.864258
vt 0.715820 0.864258
vt 0.181641 0.962891
vt 0.326172 0.704102
vt 0.181641 0.962891
vt 0.181641 0.962891
vt 0.651367 0.704102
vt 0.326172 0.704102
vt 0.181641 0.962891
vt 0.651367 0.704102
vt 0.326172 0.704102
vt 0.181641 0.962891
vt 0.651367 0.704102
vt 0.326172 0.704102
vt 0.181641 0.962891
vt 0.651367 0.704102
vt 0.326172 0.704102
vt 0.181641 0.962891
vt 0.651367 0.704102
vt 0.326172 0.704102
vt 0.181641 0.962891
vt 0.651367 0.704102
vt 0.181641 0.962891
vt 0.558594 0.981445
vt 0.181641 0.962891
vt 0.535156 0.991211
vt 0.181641 0.962891
vt 0.568359 0.958008
vt 0.181641 0.962891
vt 0.558594 0.934570
vt 0.181641 0.962891
vt 0.535156 0.924805
vt 0.181641 0.962891
vt 0.511719 0.934570
vt 0.181641 0.962891
vt 0.501953 0.958008
vt 0.181641 0.962891
vt 0.511719 0.981445
vt 0.181641 0.962891
vt 0.516602 0.397461
vt 0.181641 0.962891
vt 0.527344 0.332031
vt 0.516602 0.595703
vt 0.181641 0.962891
vt 0.527344 0.458008
vt 0.181641 0.962891
vt 0.259766 0.595703
vt 0.527344 0.332031
vt 0.181641 0.962891
vt 0.259766 0.397461
vt 0.527344 0.458008
vt 0.426758 0.595703
vt 0.376953 0.458008
vt 0.350586 0.397461
vt 0.376953 0.458008
vt 0.426758 0.397461
vt 0.376953 0.332031
vt 0.350586 0.595703
vt 0.376953 0.332031
vt 0.259766 0.595703
vt 0.181641 0.962891
vt 0.457031 0.595703
vt 0.181641 0.962891
vt 0.457031 0.670898
vt 0.181641 0.962891
vt 0.259766 0.670898
vt 0.181641 0.962891
s 0
usemtl Wall
f 1/1/1 18/19/1 17/17/1 3/3/1
f 3/3/2 17/17/2 19/20/2 5/5/2
f 5/5/3 19/20/3 20/23/3 7/7/3
f 7/7/4 20/23/4 21/26/4 9/9/4
f 9/9/5 21/26/5 22/29/5 11/11/5
f 11/11/6 22/29/6 23/32/6 13/13/6
f 10/10/7 8/8/7 36/64/7 37/66/7
f 13/13/8 23/32/8 24/36/8 15/15/8
f 15/15/7 24/36/7 18/19/7 1/1/7
f 1/1/9 3/3/9 5/5/9 7/7/9 9/9/9 11/11/9 13/13/9 15/15/9
f 26/39/10 25/38/10 17/17/10 18/19/10
f 25/37/11 27/40/11 19/21/11 17/18/11
f 27/41/12 28/43/12 20/24/12 19/22/12
f 28/44/13 29/46/13 21/27/13 20/25/13
f 29/47/14 30/49/14 22/30/14 21/28/14
f 30/50/15 31/52/15 23/33/15 22/31/15
f 31/53/16 32/55/16 24/35/16 23/34/16
f 32/56/17 26/39/17 18/19/17 24/36/17
f 2/2/18 4/4/18 25/38/18 26/39/18
f 4/4/18 6/6/18 27/42/18 25/38/18
f 6/6/18 8/8/18 28/45/18 27/42/18
f 8/8/18 10/10/18 29/48/18 28/45/18
f 10/10/18 12/12/18 30/51/18 29/48/18
f 12/12/18 14/14/18 31/54/18 30/51/18
f 14/14/18 16/16/18 32/56/18 31/54/18
f 16/16/18 2/2/18 26/39/18 32/56/18
f 33/57/18 34/59/18 40/71/18 39/69/18 38/67/18 37/65/18 36/63/18 35/61/18
f 6/6/6 4/4/6 33/58/6 35/62/6
f 16/16/3 14/14/3 39/70/3 40/72/3
f 12/12/1 10/10/1 37/66/1 38/68/1
f 8/8/8 6/6/8 35/62/8 36/64/8
f 4/4/5 2/2/5 34/60/5 33/58/5
f 2/2/4 16/16/4 40/72/4 34/60/4
f 14/14/2 12/12/2 38/68/2 39/70/2
f 42/76/19 41/73/19 47/89/19 45/85/19
f 51/98/18 50/96/18 43/79/18 42/77/18
f 50/95/9 49/93/9 52/99/9 51/97/9
f 50/96/18 49/94/18 44/82/18 43/79/18
f 49/94/18 52/100/18 41/74/18 44/82/18
f 44/83/20 43/80/20 48/91/20 46/87/20
f 48/91/18 45/85/18 47/89/18 46/87/18
f 52/100/18 51/98/18 42/77/18 41/74/18
f 43/81/21 42/78/21 45/86/21 48/92/21
f 41/75/22 44/84/22 46/88/22 47/90/22
