# Blender 3.3.0
# www.blender.org
mtllib wall_plain.mtl
o WallPlain
v -0.050000 0.000000 1.000000
v -0.050000 2.400000 1.000000
v -0.050000 0.000000 -1.000000
v -0.050000 2.400000 -1.000000
v 0.050000 0.000000 1.000000
v 0.050000 2.400000 1.000000
v 0.050000 0.000000 -1.000000
v 0.050000 2.400000 -1.000000
v 0.050000 2.500000 1.000000
v 0.050000 2.500000 -1.000000
v -0.050000 2.500000 -1.000000
v -0.050000 2.500000 1.000000
v 0.050000 0.150000 1.000000
v -0.050000 0.150000 1.000000
v -0.050000 0.150000 -1.000000
v -0.050000 0.000000 1.000000
v 0.050000 0.000000 1.000000
v 0.050000 0.000000 -1.000000
v -0.050000 0.000000 -1.000000
v -0.050000 2.400000 1.000000
v -0.050000 2.400000 -1.000000
v 0.050000 2.400000 -1.000000
v 0.050000 2.400000 1.000000
v 0.050000 0.150000 1.000000
v 0.050000 0.000000 1.000000
v 0.050000 2.500000 -1.000000
v 0.050000 2.500000 1.000000
v -0.050000 2.500000 1.000000
v -0.050000 2.500000 -1.000000
v -0.050000 0.150000 -1.000000
v -0.050000 0.150000 1.000000
v -0.050000 0.000000 1.000000
v 0.050000 0.150000 -1.000000
v 0.050000 0.000000 -1.000000
v -0.050000 0.000000 -1.000000
v -0.075000 2.400000 1.000000
v -0.075000 2.400000 -1.000000
v 0.075000 2.400000 -1.000000
v 0.075000 2.400000 1.000000
v 0.075000 0.150000 1.000000
v 0.075000 0.000000 1.000000
v 0.075000 2.500000 -1.000000
v 0.075000 2.500000 1.000000
v -0.075000 2.500000 1.000000
v -0.075000 2.500000 -1.000000
v -0.075000 0.150000 -1.000000
v -0.075000 0.150000 1.000000
v -0.075000 0.000000 1.000000
v 0.075000 0.150000 -1.000000
v 0.075000 0.000000 -1.000000
v -0.075000 0.000000 -1.000000
vn -0.0000 1.0000 -0.0000
vn -1.0000 -0.0000 -0.0000
vn -0.0000 -0.0000 1.0000
vn -0.0000 -0.0000 -1.0000
vn -0.0000 -1.0000 -0.0000
vn 1.0000 -0.0000 -0.0000
vt 0.035156 0.905273
vt 0.027344 0.988281
vt 0.036133 0.882812
vt 0.031250 0.896484
vt 0.008781 0.951996
vt 0.013672 0.988281
vt 0.031250 0.897461
vt 0.008781 0.991371
vt 0.020508 0.905273
vt 0.021484 0.882812
vt 0.016602 0.896484
vt 0.008781 0.991371
vt 0.038086 0.936523
vt 0.031250 0.882812
vt 0.008781 0.951996
vt 0.033203 0.882812
vt 0.016602 0.881836
vt 0.008781 0.991371
vt 0.008074 0.993385
vt 0.033203 0.902344
vt 0.016602 0.882812
vt 0.008781 0.951996
vt 0.008074 0.949905
vt 0.019531 0.902344
vt 0.051554 0.949905
vt 0.016602 0.897461
vt 0.008781 0.991371
vt 0.019531 0.882812
vt 0.051554 0.993385
vt 0.031250 0.881836
vt 0.008781 0.951996
vt 0.021484 0.906250
vt 0.020508 0.883789
vt 0.016602 0.882812
vt 0.027344 0.972656
vt 0.036133 0.906250
vt 0.035156 0.883789
vt 0.016602 0.882812
vt 0.013672 0.972656
vt 0.016602 0.882812
vt 0.016602 0.882812
vt 0.016602 0.882812
vt 0.016602 0.882812
vt 0.041992 0.896484
vt 0.008781 0.951996
vt 0.090820 0.941406
vt 0.016602 0.875977
vt 0.008781 0.991371
vt 0.090820 0.984375
vt 0.029297 0.897461
vt 0.038086 0.936523
vt 0.040039 0.875977
vt 0.014648 0.950195
vt 0.008781 0.951996
vt 0.029297 0.897461
vt 0.124023 0.972656
vt 0.041992 0.896484
vt 0.049805 0.950195
vt 0.008781 0.991371
vt 0.124023 0.953125
vt 0.049805 0.989258
vt 0.016602 0.882812
vt 0.035156 0.881836
vt 0.097656 0.953125
vt 0.016602 0.882812
vt 0.031250 0.910156
vt 0.035156 0.904297
vt 0.008781 0.951996
vt 0.008074 0.949905
vt 0.029297 0.882812
vt 0.033203 0.899414
vt 0.041992 0.881836
vt 0.008781 0.991371
vt 0.008074 0.993385
vt 0.033203 0.882812
vt 0.051554 0.993385
vt 0.041992 0.911133
vt 0.008781 0.951996
vt 0.041016 0.882812
vt 0.051554 0.949905
vt 0.008781 0.991371
vt 0.041016 0.899414
vt 0.029297 0.882812
vt 0.016602 0.907227
vt 0.029297 0.879883
vt 0.021484 0.882812
vt 0.097656 0.972656
vt 0.016602 0.882812
vt 0.097656 0.953125
vt 0.038086 0.904297
vt 0.016602 0.882812
vt 0.018555 0.910156
vt 0.038086 0.881836
vt 0.040039 0.907227
vt 0.014648 0.989258
vt 0.046875 0.879883
vt 0.097656 0.972656
vt 0.025391 0.904297
vt 0.046875 0.905273
vt 0.016602 0.882812
vt 0.031250 0.876953
vt 0.025391 0.882812
vt 0.029297 0.905273
vt 0.016602 0.882812
vt 0.018555 0.876953
vt 0.021484 0.904297
vt 0.038086 0.896484
vt 0.110352 0.953125
vt 0.108398 0.941406
vt 0.110352 0.972656
vt 0.108398 0.984375
vt 0.025391 0.897461
vt 0.032227 0.897461
vt 0.122070 0.972656
vt 0.038086 0.896484
vt 0.122070 0.953125
vt 0.031250 0.881836
vt 0.099609 0.953125
vt 0.036133 0.910156
vt 0.108398 0.953125
vt 0.031250 0.904297
vt 0.116211 0.972656
vt 0.032227 0.882812
vt 0.037109 0.899414
vt 0.038086 0.881836
vt 0.116211 0.953125
vt 0.037109 0.882812
vt 0.038086 0.911133
vt 0.116211 0.953125
vt 0.037109 0.882812
vt 0.116211 0.972656
vt 0.037109 0.899414
vt 0.025391 0.882812
vt 0.017578 0.882812
vt 0.095703 0.972656
vt 0.095703 0.953125
vt 0.035156 0.904297
vt 0.013672 0.910156
vt 0.086914 0.953125
vt 0.035156 0.881836
vt 0.099609 0.972656
vt 0.021484 0.904297
vt 0.036133 0.876953
vt 0.108398 0.972656
vt 0.021484 0.882812
vt 0.013672 0.876953
vt 0.086914 0.972656
vt 0.017578 0.904297
s 0
usemtl Wall
f 10/20/1 11/24/1 12/28/1 9/16/1
f 6/12/1 8/13/1 22/51/1 23/59/1
f 2/2/2 4/6/2 15/39/2 14/35/2
f 14/36/3 13/32/3 6/10/3 2/3/3
f 5/9/3 13/33/3 14/37/3 1/1/3
f 12/29/1 11/25/1 29/80/1 28/76/1
f 27/72/3 23/57/3 39/115/3 43/125/3
f 8/14/4 4/7/4 11/26/4 10/21/4
f 2/4/3 6/11/3 9/17/3 12/30/3
f 35/105/5 32/92/5 48/138/5 51/146/5
f 11/27/1 4/8/1 21/48/1 29/81/1
f 20/44/3 28/77/3 44/128/3 36/107/3
f 25/66/5 34/101/5 50/143/5 41/119/5
f 30/84/4 21/47/4 22/52/4 33/94/4
f 14/38/1 16/40/1 32/91/1 31/88/1
f 22/53/6 23/58/6 24/61/6 33/95/6
f 4/8/1 2/5/1 20/45/1 21/48/1
f 2/5/1 12/31/1 28/78/1 20/45/1
f 34/99/4 35/103/4 30/85/4 33/96/4
f 9/18/1 6/12/1 23/59/1 27/73/1
f 17/41/1 18/42/1 34/100/1 25/65/1
f 8/15/1 10/22/1 26/68/1 22/54/1
f 13/34/1 17/41/1 25/65/1 24/62/1
f 10/23/1 9/19/1 27/74/1 26/69/1
f 16/40/1 19/43/1 35/104/1 32/91/1
f 32/92/5 35/105/5 34/101/5 25/66/5
f 49/141/6 40/118/6 41/120/6 50/144/6
f 39/116/6 38/114/6 42/122/6 43/126/6
f 37/110/2 36/108/2 44/129/2 45/131/2
f 46/135/2 51/147/2 48/139/2 47/136/2
f 21/49/5 20/46/5 36/109/5 37/111/5
f 30/86/4 35/106/4 51/148/4 46/134/4
f 22/55/4 26/70/4 42/123/4 38/113/4
f 23/60/5 22/56/5 38/114/5 39/116/5
f 31/89/1 30/87/1 46/135/1 47/136/1
f 24/63/3 25/67/3 41/121/3 40/117/3
f 32/93/3 31/90/3 47/137/3 48/140/3
f 26/71/1 27/75/1 43/127/1 42/124/1
f 33/97/1 24/64/1 40/118/1 49/141/1
f 28/79/1 29/82/1 45/132/1 44/130/1
f 34/102/4 33/98/4 49/142/4 50/145/4
f 29/83/4 21/50/4 37/112/4 45/133/4
l 1 2
l 3 1
l 7 3
l 18 19
l 4 3
l 5 7
l 15 3
l 16 17
l 19 15
