# Blender 3.3.0
# www.blender.org
mtllib wall_corner.mtl
o WallCorner
v 0.000000 2.500000 0.075000
v -0.075000 0.000000 0.075000
v 0.000000 2.500000 0.000000
v -0.075000 0.000000 0.000000
v 0.000000 0.000000 0.000000
v 0.000000 0.000000 0.075000
v -0.075000 2.500000 0.075000
v -0.075000 2.500000 0.000000
v 0.000000 0.150000 0.000000
v -0.075000 0.150000 0.000000
v -0.075000 0.150000 0.075000
v 0.000000 0.150000 0.075000
v -0.075000 2.400000 0.000000
v 0.000000 2.400000 0.075000
v 0.000000 2.400000 0.000000
v -0.075000 2.400000 0.075000
v 0.000000 2.400000 0.050000
v -0.050000 2.400000 0.050000
v -0.050000 0.150000 0.050000
v 0.000000 0.150000 0.050000
v -0.050000 2.400000 0.050000
v -0.050000 2.400000 0.075000
v -0.050000 0.150000 0.075000
v -0.050000 0.150000 0.000000
v -0.050000 2.400000 0.000000
v 0.000000 0.150000 0.050000
v 0.000000 2.400000 0.050000
v -0.050000 2.400000 0.050000
v -0.050000 0.150000 0.050000
v -0.050000 2.400000 0.050000
vn -0.0000 -1.0000 -0.0000
vn -0.0000 -0.0000 1.0000
vn -1.0000 -0.0000 -0.0000
vn -0.0000 1.0000 -0.0000
vt 0.111328 0.964844
vt 0.027344 0.882812
vt 0.041016 0.875000
vt 0.041016 0.875000
vt 0.111328 0.964844
vt 0.041016 0.893555
vt 0.027344 0.882812
vt 0.041016 0.875000
vt 0.041016 0.875000
vt 0.111328 0.964844
vt 0.041016 0.893555
vt 0.041016 0.875000
vt 0.027344 0.882812
vt 0.041016 0.893555
vt 0.041016 0.875000
vt 0.111328 0.964844
vt 0.027344 0.882812
vt 0.111328 0.964844
vt 0.041016 0.875000
vt 0.041016 0.893555
vt 0.111328 0.964844
vt 0.041016 0.875000
vt 0.027344 0.882812
vt 0.034180 0.892578
vt 0.041016 0.893555
vt 0.111328 0.964844
vt 0.041016 0.893555
vt 0.111328 0.964844
vt 0.111328 0.964844
vt 0.027344 0.882812
vt 0.041016 0.893555
vt 0.111328 0.964844
vt 0.027344 0.882812
vt 0.111328 0.964844
vt 0.034180 0.892578
vt 0.027344 0.882812
vt 0.034180 0.892578
vt 0.041016 0.893555
vt 0.111328 0.964844
vt 0.050781 0.948242
vt 0.050781 0.948242
vt 0.050781 0.948242
vt 0.050781 0.948242
vt 0.050781 0.948242
vt 0.575195 0.622070
vt 0.111328 0.964844
vt 0.111328 0.964844
vt 0.051758 0.948242
vt 0.112305 0.964844
vt 0.041992 0.893555
vt 0.112305 0.964844
vt 0.051758 0.948242
vt 0.041992 0.893555
vt 0.111328 0.964844
vt 0.027344 0.882812
vt 0.034180 0.892578
vt 0.111328 0.964844
vt 0.034180 0.892578
vt 0.111328 0.964844
vt 0.575195 0.622070
vt 0.575195 0.622070
vt 0.050781 0.948242
vt 0.111328 0.964844
vt 0.575195 0.622070
vt 0.111328 0.964844
vt 0.050781 0.948242
s 0
usemtl Wall.003
f 4/9/1 5/12/1 6/15/1 2/4/1
f 13/31/2 15/38/2 3/6/2 8/20/2
f 14/34/2 1/1/2 7/18/2 16/39/2
f 16/39/3 7/18/3 8/21/3 13/32/3
f 15/36/3 14/33/3 1/2/3 3/7/3
f 8/22/4 7/19/4 1/3/4 3/8/4
f 2/5/3 11/28/3 10/26/3 4/10/3
f 6/16/2 12/29/2 11/28/2 2/5/2
f 14/34/1 22/46/1 28/59/1 27/57/1
f 22/45/4 30/64/4 29/61/4 28/60/4
f 23/47/4 12/29/4 26/54/4 29/63/4
f 5/13/3 6/17/3 12/30/3 26/55/3 9/23/3
f 27/58/3 14/35/3 15/37/3 9/24/3 26/56/3
f 13/32/1 25/51/1 30/65/1 22/46/1 16/39/1
f 19/42/2 20/43/2 17/40/2 18/41/2 21/44/2
f 30/66/3 25/52/3 24/48/3 29/62/3
f 10/26/4 11/28/4 23/47/4 29/63/4 24/49/4
f 15/38/2 25/53/2 24/50/2 9/25/2
f 4/11/2 5/14/2 9/25/2 24/50/2 10/27/2
