# Blender 3.3.0
# www.blender.org
mtllib wall_window.mtl
o WallWindow
v -0.050000 0.150000 1.000000
v -0.050000 2.400000 1.000000
v -0.050000 0.150000 -1.000000
v -0.050000 2.400000 -1.000000
v 0.050000 0.150000 1.000000
v 0.050000 2.400000 1.000000
v 0.050000 0.150000 -1.000000
v 0.050000 2.400000 -1.000000
v -0.050000 0.150000 -0.500000
v -0.050000 0.150000 0.000000
v -0.050000 0.150000 0.500000
v -0.050000 2.400000 0.500000
v -0.050000 2.400000 0.000000
v -0.050000 2.400000 -0.500000
v 0.050000 0.150000 0.500000
v 0.050000 0.150000 0.000000
v 0.050000 0.150000 -0.500000
v 0.050000 2.400000 -0.500000
v 0.050000 2.400000 0.000000
v 0.050000 2.400000 0.500000
v -0.050000 0.831760 1.000000
v -0.050000 1.765093 1.000000
v -0.050000 1.765093 -1.000000
v -0.050000 0.831760 -1.000000
v 0.050000 1.765093 -1.000000
v 0.050000 0.831760 -1.000000
v 0.050000 1.765093 1.000000
v 0.050000 0.831760 1.000000
v 0.050000 1.765093 -0.500000
v 0.050000 0.831760 -0.500000
v 0.050000 1.765093 0.000000
v 0.050000 0.831760 0.000000
v 0.050000 1.765093 0.500000
v 0.050000 0.831760 0.500000
v -0.050000 1.765093 0.500000
v -0.050000 0.831760 0.500000
v -0.050000 1.765093 0.000000
v -0.050000 0.831760 0.000000
v -0.050000 1.765093 -0.500000
v -0.050000 0.831760 -0.500000
v -0.050000 1.765093 0.500000
v -0.050000 0.831760 0.500000
v -0.050000 1.765093 0.000000
v -0.050000 0.831760 0.000000
v -0.050000 1.765093 -0.500000
v -0.050000 0.831760 -0.500000
v -0.050000 1.765093 0.500000
v -0.050000 0.831760 0.500000
v -0.050000 1.765093 0.000000
v -0.050000 0.831760 0.000000
v -0.050000 1.765093 -0.500000
v -0.050000 0.831760 -0.500000
v -0.050000 2.400000 -0.600000
v 0.050000 0.150000 -0.600000
v -0.050000 0.150000 -0.600000
v 0.050000 2.400000 -0.600000
v 0.050000 0.831760 -0.600000
v 0.050000 1.765093 -0.600000
v -0.050000 0.831760 -0.600000
v -0.050000 1.765093 -0.600000
v -0.050000 0.150000 0.600000
v 0.050000 2.400000 0.600000
v -0.050000 2.400000 0.600000
v 0.050000 0.150000 0.600000
v -0.050000 0.831760 0.600000
v -0.050000 1.765093 0.600000
v 0.050000 0.831760 0.600000
v 0.050000 1.765093 0.600000
v -0.050000 1.864626 1.000000
v -0.050000 1.864626 -1.000000
v 0.050000 1.864626 -1.000000
v 0.050000 1.864626 1.000000
v 0.050000 1.864626 -0.500000
v 0.050000 1.864626 0.000000
v 0.050000 1.864626 0.500000
v -0.050000 1.864626 0.500000
v -0.050000 1.864626 0.000000
v -0.050000 1.864626 -0.500000
v 0.050000 1.864626 -0.600000
v -0.050000 1.864626 -0.600000
v -0.050000 1.864626 0.600000
v 0.050000 1.864626 0.600000
v -0.050000 0.731836 -1.000000
v 0.050000 0.731836 -1.000000
v 0.050000 0.731836 1.000000
v 0.050000 0.731836 -0.500000
v 0.050000 0.731836 0.000000
v 0.050000 0.731836 0.500000
v -0.050000 0.731836 0.500000
v -0.050000 0.731836 0.000000
v -0.050000 0.731836 -0.500000
v -0.050000 0.731836 1.000000
v -0.050000 0.731836 -0.600000
v 0.050000 0.731836 -0.600000
v 0.050000 0.731836 0.600000
v -0.050000 0.731836 0.600000
v -0.050000 2.500000 -0.600000
v -0.050000 2.500000 -1.000000
v 0.050000 2.500000 -1.000000
v 0.050000 2.500000 0.600000
v 0.050000 2.500000 1.000000
v -0.050000 2.500000 1.000000
v -0.050000 2.500000 0.600000
v -0.050000 2.500000 0.500000
v -0.050000 2.500000 0.000000
v -0.050000 2.500000 -0.500000
v 0.050000 2.500000 -0.600000
v 0.050000 2.500000 -0.500000
v 0.050000 2.500000 0.000000
v 0.050000 2.500000 0.500000
v -0.050000 0.000000 0.600000
v -0.050000 0.000000 1.000000
v 0.050000 0.000000 -1.000000
v -0.050000 0.000000 -1.000000
v 0.050000 0.000000 -0.600000
v 0.050000 0.000000 1.000000
v -0.050000 0.000000 -0.600000
v -0.050000 0.000000 -0.500000
v -0.050000 0.000000 0.000000
v -0.050000 0.000000 0.500000
v 0.050000 0.000000 0.600000
v 0.050000 0.000000 0.500000
v 0.050000 0.000000 0.000000
v 0.050000 0.000000 -0.500000
v -0.075000 0.150000 0.600000
v -0.075000 0.150000 1.000000
v -0.075000 2.400000 -0.600000
v -0.075000 2.400000 -1.000000
v 0.075000 0.150000 -0.600000
v 0.075000 0.150000 -1.000000
v 0.075000 2.400000 0.600000
v 0.075000 2.400000 1.000000
v -0.075000 0.150000 -0.600000
v -0.075000 0.150000 -0.500000
v -0.075000 0.150000 0.000000
v -0.075000 0.150000 0.500000
v -0.075000 2.400000 0.600000
v -0.075000 2.400000 0.500000
v -0.075000 2.400000 0.000000
v -0.075000 2.400000 -0.500000
v 0.075000 0.150000 0.600000
v 0.075000 0.150000 0.500000
v 0.075000 0.150000 0.000000
v 0.075000 0.150000 -0.500000
v 0.075000 2.400000 -0.600000
v 0.075000 2.400000 -0.500000
v 0.075000 2.400000 0.000000
v 0.075000 2.400000 0.500000
v 0.075000 2.500000 0.600000
v -0.075000 2.500000 0.500000
v -0.075000 2.500000 0.600000
v 0.075000 0.000000 0.500000
v 0.075000 0.000000 0.600000
v 0.075000 0.150000 1.000000
v 0.075000 0.000000 1.000000
v 0.075000 1.864626 -0.500000
v 0.075000 1.765093 -0.500000
v 0.075000 0.831760 -0.500000
v 0.075000 1.864626 0.000000
v 0.075000 1.765093 0.000000
v 0.075000 1.864626 0.500000
v 0.075000 1.765093 0.500000
v 0.075000 0.831760 0.500000
v -0.075000 1.864626 0.500000
v -0.075000 1.765093 0.500000
v -0.075000 0.831760 0.500000
v -0.075000 1.864626 0.000000
v -0.075000 1.765093 0.000000
v -0.075000 1.864626 -0.500000
v -0.075000 1.765093 -0.500000
v -0.075000 0.831760 -0.500000
v -0.075000 0.831760 0.000000
v -0.075000 0.831760 0.600000
v -0.075000 1.765093 0.600000
v 0.075000 0.831760 0.000000
v 0.075000 0.831760 -0.600000
v 0.075000 1.765093 -0.600000
v -0.075000 0.150000 -1.000000
v 0.075000 2.400000 -1.000000
v -0.075000 0.831760 -0.600000
v -0.075000 1.765093 -0.600000
v 0.075000 1.864626 -0.600000
v -0.075000 0.000000 1.000000
v 0.075000 2.500000 0.000000
v -0.075000 1.864626 -0.600000
v -0.075000 2.400000 1.000000
v 0.075000 0.831760 0.600000
v 0.075000 1.765093 0.600000
v -0.075000 1.864626 0.600000
v 0.075000 2.500000 -0.500000
v -0.075000 0.000000 0.600000
v 0.075000 1.864626 0.600000
v 0.075000 0.731836 -0.500000
v 0.075000 0.731836 0.000000
v 0.075000 0.731836 0.500000
v -0.075000 0.731836 0.500000
v -0.075000 0.731836 0.000000
v -0.075000 0.731836 -0.500000
v -0.075000 0.731836 -0.600000
v 0.075000 0.731836 -0.600000
v 0.075000 0.731836 0.600000
v -0.075000 0.731836 0.600000
v -0.075000 2.500000 -0.600000
v -0.075000 2.500000 -1.000000
v 0.075000 2.500000 1.000000
v -0.075000 2.500000 0.000000
v -0.075000 2.500000 -0.500000
v 0.075000 2.500000 -0.600000
v 0.075000 2.500000 0.500000
v 0.075000 2.500000 -1.000000
v -0.075000 2.500000 1.000000
v 0.075000 0.000000 -0.600000
v 0.075000 0.000000 -1.000000
v -0.075000 0.000000 -0.600000
v -0.075000 0.000000 -0.500000
v -0.075000 0.000000 0.000000
v -0.075000 0.000000 0.500000
v 0.075000 0.000000 0.000000
v 0.075000 0.000000 -0.500000
v -0.075000 0.000000 -1.000000
vn -1.0000 -0.0000 -0.0000
vn -0.0000 -0.0000 -1.0000
vn 1.0000 -0.0000 -0.0000
vn -0.0000 -0.0000 1.0000
vn -0.0000 1.0000 -0.0000
vn -0.0000 -1.0000 -0.0000
vt 0.059570 0.982422
vt 0.044922 0.889648
vt 0.102539 0.974609
vt 0.102539 0.974609
vt 0.059570 0.982422
vt 0.044922 0.889648
vt 0.059570 0.982422
vt 0.102539 0.974609
vt 0.044922 0.889648
vt 0.059570 0.982422
vt 0.102539 0.974609
vt 0.044922 0.889648
vt 0.102539 0.974609
vt 0.059570 0.982422
vt 0.044922 0.889648
vt 0.059570 0.982422
vt 0.044922 0.889648
vt 0.102539 0.974609
vt 0.059570 0.982422
vt 0.044922 0.889648
vt 0.102539 0.974609
vt 0.059570 0.982422
vt 0.044922 0.889648
vt 0.102539 0.974609
vt 0.059570 0.982422
vt 0.102539 0.974609
vt 0.059570 0.982422
vt 0.102539 0.974609
vt 0.102539 0.974609
vt 0.059570 0.982422
vt 0.059570 0.982422
vt 0.102539 0.974609
vt 0.059570 0.982422
vt 0.102539 0.974609
vt 0.059570 0.982422
vt 0.102539 0.974609
vt 0.102539 0.974609
vt 0.059570 0.982422
vt 0.102539 0.974609
vt 0.059570 0.982422
vt 0.059570 0.982422
vt 0.102539 0.974609
vt 0.059570 0.982422
vt 0.102539 0.974609
vt 0.059570 0.982422
vt 0.102539 0.974609
vt 0.059570 0.982422
vt 0.102539 0.974609
vt 0.044922 0.889648
vt 0.059570 0.982422
vt 0.059570 0.982422
vt 0.044922 0.889648
vt 0.044922 0.889648
vt 0.059570 0.982422
vt 0.044922 0.889648
vt 0.059570 0.982422
vt 0.059570 0.982422
vt 0.044922 0.889648
vt 0.044922 0.889648
vt 0.059570 0.982422
vt 0.044922 0.889648
vt 0.059570 0.982422
vt 0.044922 0.889648
vt 0.059570 0.982422
vt 0.102539 0.974609
vt 0.102539 0.974609
vt 0.102539 0.974609
vt 0.102539 0.974609
vt 0.102539 0.974609
vt 0.102539 0.974609
vt 0.102539 0.974609
vt 0.102539 0.974609
vt 0.102539 0.974609
vt 0.102539 0.974609
vt 0.102539 0.974609
vt 0.102539 0.974609
vt 0.102539 0.974609
vt 0.102539 0.974609
vt 0.102539 0.974609
vt 0.102539 0.974609
vt 0.102539 0.974609
vt 0.102539 0.974609
vt 0.102539 0.974609
vt 0.102539 0.974609
vt 0.102539 0.974609
vt 0.102539 0.974609
vt 0.102539 0.974609
vt 0.102539 0.974609
vt 0.059570 0.982422
vt 0.102539 0.974609
vt 0.059570 0.982422
vt 0.102539 0.974609
vt 0.059570 0.982422
vt 0.102539 0.974609
vt 0.059570 0.982422
vt 0.102539 0.974609
vt 0.059570 0.982422
vt 0.102539 0.974609
vt 0.059570 0.982422
vt 0.102539 0.974609
vt 0.059570 0.982422
vt 0.102539 0.974609
vt 0.059570 0.982422
vt 0.102539 0.974609
vt 0.059570 0.982422
vt 0.102539 0.974609
vt 0.059570 0.982422
vt 0.102539 0.974609
vt 0.059570 0.982422
vt 0.102539 0.974609
vt 0.102539 0.974609
vt 0.059570 0.982422
vt 0.059570 0.982422
vt 0.102539 0.974609
vt 0.059570 0.982422
vt 0.102539 0.974609
vt 0.059570 0.982422
vt 0.102539 0.974609
vt 0.059570 0.982422
vt 0.102539 0.974609
vt 0.059570 0.982422
vt 0.044922 0.889648
vt 0.044922 0.889648
vt 0.059570 0.982422
vt 0.059570 0.982422
vt 0.044922 0.889648
vt 0.044922 0.889648
vt 0.059570 0.982422
vt 0.059570 0.982422
vt 0.102539 0.974609
vt 0.059570 0.982422
vt 0.102539 0.974609
vt 0.059570 0.982422
vt 0.102539 0.974609
vt 0.059570 0.982422
vt 0.102539 0.974609
vt 0.059570 0.982422
vt 0.102539 0.974609
vt 0.059570 0.982422
vt 0.102539 0.974609
vt 0.059570 0.982422
vt 0.102539 0.974609
vt 0.059570 0.982422
vt 0.102539 0.974609
vt 0.059570 0.982422
vt 0.102539 0.974609
vt 0.059570 0.982422
vt 0.102539 0.974609
vt 0.059570 0.982422
vt 0.044922 0.889648
vt 0.059570 0.982422
vt 0.044922 0.889648
vt 0.059570 0.982422
vt 0.044922 0.889648
vt 0.059570 0.982422
vt 0.102539 0.974609
vt 0.059570 0.982422
vt 0.102539 0.974609
vt 0.059570 0.982422
vt 0.102539 0.974609
vt 0.059570 0.982422
vt 0.102539 0.974609
vt 0.059570 0.982422
vt 0.102539 0.974609
vt 0.059570 0.982422
vt 0.102539 0.974609
vt 0.059570 0.982422
vt 0.044922 0.889648
vt 0.059570 0.982422
vt 0.102539 0.974609
vt 0.059570 0.982422
vt 0.102539 0.974609
vt 0.059570 0.982422
vt 0.102539 0.974609
vt 0.059570 0.982422
vt 0.102539 0.974609
vt 0.037109 0.888672
vt 0.037109 0.888672
vt 0.044922 0.889648
vt 0.044922 0.889648
vt 0.037109 0.888672
vt 0.037109 0.888672
vt 0.037109 0.888672
vt 0.044922 0.889648
vt 0.044922 0.889648
vt 0.037109 0.888672
vt 0.037109 0.888672
vt 0.037109 0.888672
vt 0.037109 0.888672
vt 0.037109 0.888672
vt 0.037109 0.888672
vt 0.037109 0.888672
vt 0.037109 0.888672
vt 0.037109 0.888672
vt 0.044922 0.889648
vt 0.044922 0.889648
vt 0.044922 0.889648
vt 0.044922 0.889648
vt 0.044922 0.889648
vt 0.044922 0.889648
vt 0.044922 0.889648
vt 0.044922 0.889648
vt 0.044922 0.889648
vt 0.044922 0.889648
vt 0.044922 0.889648
vt 0.044922 0.889648
vt 0.044922 0.889648
vt 0.044922 0.889648
vt 0.102539 0.974609
vt 0.044922 0.889648
vt 0.102539 0.974609
vt 0.102539 0.974609
vt 0.102539 0.974609
vt 0.044922 0.889648
vt 0.102539 0.974609
vt 0.044922 0.889648
vt 0.102539 0.974609
vt 0.102539 0.974609
vt 0.044922 0.889648
vt 0.102539 0.974609
vt 0.102539 0.974609
vt 0.102539 0.974609
vt 0.102539 0.974609
vt 0.102539 0.974609
vt 0.102539 0.974609
vt 0.102539 0.974609
vt 0.102539 0.974609
vt 0.102539 0.974609
vt 0.102539 0.974609
vt 0.102539 0.974609
vt 0.102539 0.974609
vt 0.102539 0.974609
vt 0.102539 0.974609
vt 0.102539 0.974609
vt 0.102539 0.974609
vt 0.102539 0.974609
vt 0.102539 0.974609
vt 0.037109 0.888672
vt 0.037109 0.888672
vt 0.102539 0.974609
vt 0.102539 0.974609
vt 0.037109 0.888672
vt 0.102539 0.974609
vt 0.044922 0.889648
vt 0.102539 0.974609
vt 0.044922 0.889648
vt 0.102539 0.974609
vt 0.044922 0.889648
vt 0.102539 0.974609
vt 0.044922 0.889648
vt 0.102539 0.974609
vt 0.102539 0.974609
vt 0.102539 0.974609
vt 0.102539 0.974609
vt 0.102539 0.974609
vt 0.102539 0.974609
vt 0.102539 0.974609
vt 0.102539 0.974609
vt 0.102539 0.974609
vt 0.102539 0.974609
vt 0.102539 0.974609
vt 0.102539 0.974609
vt 0.102539 0.974609
vt 0.102539 0.974609
vt 0.102539 0.974609
vt 0.102539 0.974609
vt 0.102539 0.974609
vt 0.102539 0.974609
vt 0.102539 0.974609
vt 0.102539 0.974609
vt 0.102539 0.974609
vt 0.102539 0.974609
vt 0.102539 0.974609
vt 0.044922 0.889648
vt 0.044922 0.889648
vt 0.102539 0.974609
vt 0.102539 0.974609
vt 0.102539 0.974609
vt 0.102539 0.974609
vt 0.044922 0.889648
vt 0.102539 0.974609
vt 0.037109 0.888672
vt 0.102539 0.974609
vt 0.102539 0.974609
vt 0.044922 0.889648
vt 0.102539 0.974609
vt 0.102539 0.974609
vt 0.102539 0.974609
vt 0.102539 0.974609
vt 0.037109 0.888672
vt 0.102539 0.974609
vt 0.102539 0.974609
vt 0.044922 0.889648
vt 0.102539 0.974609
vt 0.102539 0.974609
vt 0.102539 0.974609
vt 0.102539 0.974609
vt 0.102539 0.974609
vt 0.102539 0.974609
vt 0.102539 0.974609
vt 0.102539 0.974609
vt 0.102539 0.974609
vt 0.102539 0.974609
vt 0.102539 0.974609
vt 0.102539 0.974609
vt 0.037109 0.888672
vt 0.037109 0.888672
vt 0.102539 0.974609
vt 0.044922 0.889648
vt 0.037109 0.888672
vt 0.102539 0.974609
vt 0.044922 0.889648
vt 0.037109 0.888672
vt 0.102539 0.974609
vt 0.102539 0.974609
vt 0.037109 0.888672
vt 0.102539 0.974609
vt 0.037109 0.888672
vt 0.102539 0.974609
vt 0.037109 0.888672
vt 0.044922 0.889648
vt 0.102539 0.974609
vt 0.037109 0.888672
vt 0.044922 0.889648
vt 0.102539 0.974609
vt 0.037109 0.888672
vt 0.102539 0.974609
vt 0.044922 0.889648
vt 0.102539 0.974609
vt 0.044922 0.889648
vt 0.102539 0.974609
vt 0.044922 0.889648
vt 0.044922 0.889648
vt 0.102539 0.974609
vt 0.044922 0.889648
vt 0.102539 0.974609
vt 0.102539 0.974609
vt 0.044922 0.889648
vt 0.102539 0.974609
vt 0.044922 0.889648
vt 0.102539 0.974609
vt 0.044922 0.889648
vt 0.102539 0.974609
vt 0.044922 0.889648
s 0
usemtl Wall
f 80/143/1 53/89/1 4/10/1 70/124/1
f 70/123/2 4/12/2 8/23/2 71/126/2
f 82/147/3 62/107/3 6/16/3 72/128/3
f 72/127/4 6/17/4 2/6/4 69/122/4
f 64/111/5 5/13/5 154/247/5 141/229/5
f 18/44/6 56/96/6 145/233/6 146/234/6
f 94/172/2 57/98/2 176/271/2 200/302/2
f 109/193/5 110/194/5 209/320/5 184/282/5
f 121/205/6 122/206/6 152/244/6 153/246/6
f 3/9/2 7/20/2 113/197/2 114/198/2
f 63/110/6 2/4/6 186/286/6 137/225/6
f 5/15/4 1/2/4 112/196/4 116/200/4
f 79/141/3 56/95/3 18/43/3 73/129/3
f 73/129/3 18/43/3 19/45/3 74/131/3
f 74/131/3 19/45/3 20/47/3 75/133/3
f 81/145/1 63/109/1 12/31/1 76/135/1
f 76/135/1 12/31/1 13/33/1 77/137/1
f 77/137/1 13/33/1 14/35/1 78/139/1
f 17/42/5 16/39/5 143/231/5 144/232/5
f 59/102/2 93/170/2 199/301/2 180/277/2
f 29/65/4 39/75/4 45/81/4 51/87/4 46/82/4 40/76/4 52/88/4 30/66/4
f 108/192/5 109/193/5 184/282/5 190/290/5
f 119/203/6 120/204/6 217/338/6 216/335/6
f 62/108/6 20/48/6 148/236/6 131/218/6
f 34/70/2 48/84/2 36/72/2 42/78/2 47/83/2 41/77/2 35/71/2 33/69/2
f 16/39/5 15/37/5 142/230/5 143/231/5
f 29/65/4 30/66/4 158/253/4 157/252/4
f 107/191/5 108/192/5 190/290/5 208/318/5
f 85/154/4 28/63/4 21/49/4 92/168/4
f 28/63/4 27/61/4 22/52/4 21/49/4
f 95/173/3 67/117/3 28/64/3 85/153/3
f 67/117/3 68/119/3 27/62/3 28/64/3
f 83/150/2 24/55/2 26/59/2 84/152/2
f 24/55/2 23/53/2 25/58/2 26/59/2
f 93/169/1 59/101/1 24/56/1 83/149/1
f 59/101/1 60/103/1 23/54/1 24/56/1
f 38/74/5 36/72/5 42/78/5 48/84/5 34/70/5 32/68/5 50/86/5 44/80/5
f 49/85/6 31/67/6 33/69/6 47/83/6 41/77/6 35/71/6 37/73/6 43/79/6
f 44/80/5 50/86/5 32/68/5 30/66/5 52/88/5 46/82/5 40/76/5 38/74/5
f 37/73/6 39/75/6 45/81/6 51/87/6 29/65/6 31/67/6 49/85/6 43/79/6
f 118/202/6 119/203/6 216/335/6 215/333/6
f 61/106/5 11/29/5 136/224/5 125/209/5
f 26/60/3 25/57/3 58/99/3 57/97/3
f 84/151/3 26/60/3 57/97/3 94/171/3
f 71/125/3 8/22/3 56/95/3 79/141/3
f 15/37/5 64/111/5 141/229/5 142/230/5
f 105/189/5 106/190/5 207/316/5 206/313/5
f 78/139/1 14/35/1 53/89/1 80/143/1
f 117/201/6 118/202/6 215/333/6 214/332/6
f 80/144/2 60/104/2 181/278/2 185/284/2
f 21/50/1 22/51/1 66/115/1 65/113/1
f 92/167/1 21/50/1 65/113/1 96/175/1
f 69/121/1 2/5/1 63/109/1 81/145/1
f 14/36/6 13/34/6 139/227/6 140/228/6
f 104/188/5 105/189/5 206/313/5 150/239/5
f 75/133/3 20/47/3 62/107/3 82/147/3
f 13/34/6 12/32/6 138/226/6 139/227/6
f 22/51/1 69/121/1 81/145/1 66/115/1
f 103/187/5 104/188/5 150/239/5 151/242/5
f 25/57/3 71/125/3 79/141/3 58/99/3
f 115/199/6 113/197/6 213/330/6 212/328/6
f 112/196/4 1/2/4 126/210/4 183/280/4
f 12/32/6 63/110/6 137/225/6 138/226/6
f 58/100/2 79/142/2 182/279/2 177/272/2
f 11/29/5 10/28/5 135/223/5 136/224/5
f 100/182/5 101/183/5 205/310/5 149/238/5
f 27/61/4 72/127/4 69/122/4 22/52/4
f 68/119/3 82/147/3 72/128/3 27/62/3
f 23/53/2 70/123/2 71/126/2 25/58/2
f 60/103/1 80/143/1 70/124/1 23/54/1
f 1/1/1 92/167/1 96/175/1 61/105/1
f 15/38/3 88/159/3 95/173/3 64/112/3
f 7/19/3 84/151/3 94/171/3 54/91/3
f 9/25/1 91/165/1 93/169/1 55/93/1
f 55/93/1 93/169/1 83/149/1 3/7/1
f 3/9/2 83/150/2 84/152/2 7/20/2
f 64/112/3 95/173/3 85/153/3 5/14/3
f 5/15/4 85/154/4 92/168/4 1/2/4
f 54/91/3 94/171/3 86/155/3 17/41/3
f 17/41/3 86/155/3 87/157/3 16/40/3
f 16/40/3 87/157/3 88/159/3 15/38/3
f 61/105/1 96/175/1 89/161/1 11/30/1
f 11/30/1 89/161/1 90/163/1 10/27/1
f 10/27/1 90/163/1 91/165/1 9/25/1
f 100/182/5 103/187/5 102/186/5 101/183/5
f 107/191/5 97/177/5 106/190/5 108/192/5
f 108/192/5 106/190/5 105/189/5 109/193/5
f 109/193/5 105/189/5 104/188/5 110/194/5
f 99/181/5 98/178/5 97/177/5 107/191/5
f 110/194/5 104/188/5 103/187/5 100/182/5
f 111/195/6 112/196/6 183/280/6 191/293/6
f 10/28/5 9/26/5 134/222/5 135/223/5
f 2/6/4 6/17/4 101/184/4 102/185/4
f 8/23/2 4/12/2 98/179/2 99/180/2
f 31/67/6 29/65/6 157/252/6 160/255/6
f 57/98/2 58/100/2 177/272/2 176/271/2
f 9/26/5 55/94/5 133/221/5 134/222/5
f 30/66/5 32/68/5 175/270/5 158/253/5
f 111/195/6 121/205/6 116/200/6 112/196/6
f 117/201/6 115/199/6 124/208/6 118/202/6
f 118/202/6 124/208/6 123/207/6 119/203/6
f 119/203/6 123/207/6 122/206/6 120/204/6
f 114/198/6 113/197/6 115/199/6 117/201/6
f 120/204/6 122/206/6 121/205/6 111/195/6
f 97/177/5 98/178/5 204/307/5 203/306/5
f 8/23/2 99/180/2 210/321/2 179/275/2
f 33/69/6 31/67/6 160/255/6 162/257/6
f 91/166/6 90/164/6 197/299/6 198/300/6
f 2/6/4 102/185/4 211/324/4 186/285/4
f 60/104/2 59/102/2 180/277/2 181/278/2
f 32/68/5 34/70/5 163/258/5 175/270/5
f 90/164/6 89/162/6 196/298/6 197/299/6
f 143/231/3 142/230/3 152/243/3 218/339/3
f 128/213/1 127/212/1 203/305/1 204/308/1
f 139/227/1 138/226/1 150/240/1 206/314/1
f 148/236/3 147/235/3 184/283/3 209/319/3
f 132/220/3 131/218/3 149/237/3 205/311/3
f 142/230/3 141/229/3 153/245/3 152/243/3
f 197/299/1 172/267/1 171/266/1 198/300/1
f 196/298/1 166/261/1 172/267/1 197/299/1
f 202/304/1 173/268/1 166/261/1 196/298/1
f 173/268/1 174/269/1 165/260/1 166/261/1
f 194/296/3 175/270/3 163/258/3 195/297/3
f 193/295/3 158/253/3 175/270/3 194/296/3
f 200/302/3 176/271/3 158/253/3 193/295/3
f 176/271/3 177/272/3 157/252/3 158/253/3
f 171/266/1 170/265/1 181/278/1 180/277/1
f 198/300/1 171/266/1 180/277/1 199/301/1
f 141/229/3 154/247/3 155/249/3 153/245/3
f 138/226/1 137/225/1 151/241/1 150/240/1
f 163/258/3 162/257/3 188/288/3 187/287/3
f 195/297/3 163/258/3 187/287/3 201/303/3
f 147/235/3 146/234/3 190/291/3 184/283/3
f 126/211/1 125/209/1 191/292/1 183/281/1
f 162/257/3 161/256/3 192/294/3 188/288/3
f 170/265/1 169/264/1 185/284/1 181/278/1
f 168/263/1 167/262/1 169/264/1 170/265/1
f 165/260/1 164/259/1 167/262/1 168/263/1
f 174/269/1 189/289/1 164/259/1 165/260/1
f 160/255/3 159/254/3 161/256/3 162/257/3
f 157/252/3 156/251/3 159/254/3 160/255/3
f 177/272/3 182/279/3 156/251/3 157/252/3
f 140/228/1 139/227/1 206/314/1 207/315/1
f 127/212/1 140/228/1 207/315/1 203/305/1
f 131/218/3 148/236/3 209/319/3 149/237/3
f 146/234/3 145/233/3 208/317/3 190/291/3
f 145/233/3 179/276/3 210/322/3 208/317/3
f 137/225/1 186/286/1 211/325/1 151/241/1
f 129/215/3 144/232/3 219/341/3 212/327/3
f 125/209/1 136/224/1 217/337/1 191/292/1
f 134/222/1 133/221/1 214/331/1 215/334/1
f 144/232/3 143/231/3 218/339/3 219/341/3
f 133/221/1 178/273/1 220/343/1 214/331/1
f 135/223/1 134/222/1 215/334/1 216/336/1
f 136/224/1 135/223/1 216/336/1 217/337/1
f 130/217/3 129/215/3 212/327/3 213/329/3
f 122/206/6 123/207/6 218/340/6 152/244/6
f 67/118/4 95/174/4 201/303/4 187/287/4
f 19/46/6 18/44/6 146/234/6 147/235/6
f 75/134/5 82/148/5 192/294/5 161/256/5
f 123/207/6 124/208/6 219/342/6 218/340/6
f 96/176/4 65/114/4 173/268/4 202/304/4
f 34/70/2 33/69/2 162/257/2 163/258/2
f 20/48/6 19/46/6 147/235/6 148/236/6
f 78/140/5 80/144/5 185/284/5 169/264/5
f 106/190/5 97/177/5 203/306/5 207/316/5
f 95/174/6 88/160/6 195/297/6 201/303/6
f 35/71/2 36/72/2 166/261/2 165/260/2
f 99/181/5 107/191/5 208/318/5 210/323/5
f 77/138/5 78/140/5 169/264/5 167/262/5
f 68/120/4 67/118/4 187/287/4 188/288/4
f 1/3/5 61/106/5 125/209/5 126/211/5
f 124/208/6 115/199/6 212/328/6 219/342/6
f 93/170/6 91/166/6 198/300/6 199/301/6
f 76/136/5 77/138/5 167/262/5 164/259/5
f 114/198/6 117/201/6 214/332/6 220/344/6
f 110/194/5 100/182/5 149/238/5 209/320/5
f 81/146/5 76/136/5 164/259/5 189/289/5
f 4/11/6 53/90/6 127/212/6 128/213/6
f 65/114/4 66/116/4 174/269/4 173/268/4
f 53/90/6 14/36/6 140/228/6 127/212/6
f 102/186/5 103/187/5 151/242/5 211/326/5
f 40/76/4 39/75/4 170/265/4 171/266/4
f 74/132/5 75/134/5 161/256/5 159/254/5
f 5/15/4 116/200/4 155/250/4 154/248/4
f 120/204/6 111/195/6 191/293/6 217/338/6
f 54/92/5 17/42/5 144/232/5 129/215/5
f 38/74/5 40/76/5 171/266/5 172/267/5
f 73/130/5 74/132/5 159/254/5 156/251/5
f 66/116/4 81/146/4 189/289/4 174/269/4
f 116/200/6 121/205/6 153/246/6 155/250/6
f 55/94/5 3/8/5 178/273/5 133/221/5
f 101/184/4 6/17/4 132/219/4 205/312/4
f 39/75/6 37/73/6 168/263/6 170/265/6
f 79/142/5 73/130/5 156/251/5 182/279/5
f 56/96/6 8/24/6 179/276/6 145/233/6
f 86/156/6 94/172/6 200/302/6 193/295/6
f 36/72/5 38/74/5 172/267/5 166/261/5
f 113/197/2 7/20/2 130/216/2 213/330/2
f 87/158/6 86/156/6 193/295/6 194/296/6
f 37/73/6 35/71/6 165/260/6 168/263/6
f 7/21/5 54/92/5 129/215/5 130/217/5
f 82/148/4 68/120/4 188/288/4 192/294/4
f 3/9/2 114/198/2 220/344/2 178/274/2
f 88/160/6 87/158/6 194/296/6 195/297/6
f 6/18/6 62/108/6 131/218/6 132/220/6
f 98/179/2 4/12/2 128/214/2 204/309/2
f 89/162/6 96/176/6 202/304/6 196/298/6
