# Blender 3.3.0
# www.blender.org
mtllib wall_cap.mtl
o WallCap
v -0.075000 0.000000 0.075000
v -0.075000 0.000000 -0.075000
v 0.075000 0.000000 0.075000
v 0.075000 0.000000 -0.075000
v -0.075000 0.000000 -0.075000
v -0.075000 0.000000 0.075000
v 0.075000 0.000000 -0.075000
v 0.075000 0.000000 0.075000
v -0.075000 2.500000 -0.075000
v -0.075000 2.500000 0.075000
v 0.075000 2.500000 -0.075000
v 0.075000 2.500000 0.075000
vn -0.0000 -1.0000 -0.0000
vn -0.0000 1.0000 -0.0000
vn -0.0000 -0.0000 -1.0000
vn 1.0000 -0.0000 -0.0000
vn -1.0000 -0.0000 -0.0000
vn -0.0000 -0.0000 1.0000
vt 0.038086 0.890625
vt 0.120117 0.964844
vt 0.038086 0.890625
vt 0.120117 0.964844
vt 0.038086 0.890625
vt 0.120117 0.964844
vt 0.038086 0.890625
vt 0.120117 0.964844
vt 0.120117 0.964844
vt 0.120117 0.964844
vt 0.120117 0.964844
vt 0.120117 0.964844
vt 0.038086 0.890625
vt 0.120117 0.964844
vt 0.038086 0.890625
vt 0.120117 0.964844
vt 0.038086 0.890625
vt 0.120117 0.964844
vt 0.038086 0.890625
vt 0.120117 0.964844
s 0
usemtl Wall
f 2/3/1 4/7/1 3/5/1 1/1/1
f 5/9/2 6/10/2 8/12/2 7/11/2
f 9/13/2 10/15/2 12/19/2 11/17/2
f 4/8/3 2/4/3 9/14/3 11/18/3
f 3/6/4 4/8/4 11/18/4 12/20/4
f 2/4/5 1/2/5 10/16/5 9/14/5
f 1/2/6 3/6/6 12/20/6 10/16/6
