# Blender 3.3.0
# www.blender.org
mtllib window.mtl
o Window
v -0.025000 0.883653 0.443080
v -0.025000 1.713199 0.443080
v -0.025000 0.883653 -0.443080
v -0.025000 1.713199 -0.443080
v 0.025000 0.883653 0.443080
v 0.025000 1.713199 0.443080
v 0.025000 0.883653 -0.443080
v 0.025000 1.713199 -0.443080
v -0.025000 0.826733 -0.500000
v -0.025000 0.826733 0.500000
v -0.025000 1.770119 0.500000
v -0.025000 1.770119 -0.500000
v 0.025000 1.770119 -0.500000
v 0.025000 0.826733 -0.500000
v 0.025000 0.826733 0.500000
v 0.025000 1.770119 0.500000
v -0.025000 0.883653 -0.443080
v -0.025000 0.883653 0.443080
v -0.025000 1.713199 0.443080
v -0.025000 1.713199 -0.443080
v 0.025000 1.713199 -0.443080
v 0.025000 0.883653 -0.443080
v 0.025000 0.883653 0.443080
v 0.025000 1.713199 0.443080
vn -0.0000 1.0000 -0.0000
vn -0.0000 -0.0000 -1.0000
vn -0.0000 -0.0000 1.0000
vn -0.0000 -1.0000 -0.0000
vn -1.0000 -0.0000 -0.0000
vn 1.0000 -0.0000 -0.0000
vt 0.113281 0.964844
vt 0.113281 0.964844
vt 0.113281 0.964844
vt 0.113281 0.964844
vt 0.113281 0.964844
vt 0.113281 0.964844
vt 0.113281 0.964844
vt 0.113281 0.964844
vt 0.113281 0.964844
vt 0.113281 0.964844
vt 0.113281 0.964844
vt 0.113281 0.964844
vt 0.113281 0.964844
vt 0.113281 0.964844
vt 0.113281 0.964844
vt 0.113281 0.964844
vt 0.113281 0.964844
vt 0.113281 0.964844
vt 0.113281 0.964844
vt 0.113281 0.964844
vt 0.113281 0.964844
vt 0.113281 0.964844
vt 0.113281 0.964844
vt 0.113281 0.964844
s 0
usemtl Wall
f 5/5/1 7/7/1 22/22/1 23/23/1
f 9/9/2 12/12/2 13/13/2 14/14/2
f 6/6/1 5/5/1 23/23/1 24/24/1
f 15/15/3 16/16/3 11/11/3 10/10/3
f 9/9/4 14/14/4 15/15/4 10/10/4
f 13/13/1 12/12/1 11/11/1 16/16/1
f 1/1/5 3/3/5 9/9/5 10/10/5
f 2/2/5 1/1/5 10/10/5 11/11/5
f 4/4/5 2/2/5 11/11/5 12/12/5
f 3/3/5 4/4/5 12/12/5 9/9/5
f 8/8/6 7/7/6 14/14/6 13/13/6
f 7/7/6 5/5/6 15/15/6 14/14/6
f 6/6/6 8/8/6 13/13/6 16/16/6
f 5/5/6 6/6/6 16/16/6 15/15/6
f 1/1/3 18/18/3 23/23/3 5/5/3 6/6/3 2/2/3
f 4/4/1 3/3/1 17/17/1 20/20/1
f 1/1/1 2/2/1 19/19/1 18/18/1
f 8/8/1 6/6/1 24/24/1 21/21/1
f 7/7/1 8/8/1 21/21/1 22/22/1
f 2/2/1 4/4/1 20/20/1 19/19/1
f 3/3/1 1/1/1 18/18/1 17/17/1
f 4/4/1 2/2/1 6/6/1 8/8/1
f 18/18/4 3/3/4 17/17/4 7/7/4 22/22/4 23/23/4 5/5/4 1/1/4
f 4/4/3 17/17/3 3/3/3 7/7/3 22/22/3 21/21/3 8/8/3 20/20/3
