# Blender 3.3.0
# www.blender.org
mtllib wrench.mtl
o Wrench
v 0.069050 0.026611 0.266284
v -0.030452 -0.026611 0.266284
v -0.026562 0.026611 -0.255493
v -0.026562 -0.026611 -0.255493
v 0.105491 0.026611 0.266284
v -0.030452 0.026611 0.266284
v 0.026562 0.026611 -0.255493
v 0.026562 -0.026611 -0.255493
v -0.050000 0.026611 0.100419
v -0.050000 -0.026611 0.100419
v 0.050000 0.026611 0.100419
v 0.050000 -0.026611 0.100419
v -0.080202 0.026611 0.193848
v 0.118801 -0.026611 0.193848
v -0.080202 -0.026611 0.193848
v 0.118801 0.026611 0.193848
v 0.105491 -0.026611 0.266284
v 0.069050 -0.026611 0.266284
v -0.068420 0.026611 0.266284
v -0.068420 -0.026611 0.266284
v -0.030452 -0.026611 0.193848
v 0.019299 -0.026611 0.162991
v 0.069050 -0.026611 0.193848
v 0.069050 0.026611 0.193848
v 0.019299 0.026611 0.162991
v -0.030452 0.026611 0.193848
vn -0.9978 -0.0000 -0.0657
vn -0.0000 -0.0000 -1.0000
vn -0.9870 -0.0000 0.1606
vn 0.9835 -0.0000 0.1807
vn -0.0000 1.0000 -0.0000
vn -0.0000 -1.0000 -0.0000
vn 0.9978 -0.0000 -0.0657
vn -0.9515 -0.0000 -0.3076
vn 0.8052 -0.0000 -0.5930
vn -0.0000 -0.0000 1.0000
vn -1.0000 -0.0000 -0.0000
vn 0.5271 -0.0000 0.8498
vn -0.5271 -0.0000 0.8498
vn 1.0000 -0.0000 -0.0000
vt 0.186523 0.957031
vt 0.186523 0.957031
vt 0.186523 0.957031
vt 0.186523 0.957031
vt 0.186523 0.957031
vt 0.186523 0.957031
vt 0.186523 0.957031
vt 0.186523 0.957031
vt 0.186523 0.957031
vt 0.186523 0.957031
vt 0.186523 0.957031
vt 0.186523 0.957031
vt 0.186523 0.957031
vt 0.186523 0.957031
vt 0.186523 0.957031
vt 0.186523 0.957031
vt 0.186523 0.957031
vt 0.186523 0.957031
vt 0.186523 0.957031
vt 0.186523 0.957031
vt 0.186523 0.957031
vt 0.186523 0.957031
vt 0.186523 0.957031
vt 0.186523 0.957031
vt 0.186523 0.957031
vt 0.186523 0.957031
s 0
usemtl Wall
f 9/9/1 3/3/1 4/4/1 10/10/1
f 3/3/2 7/7/2 8/8/2 4/4/2
f 15/15/3 20/20/3 19/19/3 13/13/3
f 16/16/4 5/5/4 17/17/4 14/14/4
f 13/13/5 19/19/5 6/6/5 26/26/5
f 24/24/5 1/1/5 5/5/5 16/16/5
f 8/8/6 12/12/6 10/10/6 4/4/6
f 3/3/5 9/9/5 11/11/5 7/7/5
f 7/7/7 11/11/7 12/12/7 8/8/7
f 13/13/8 9/9/8 10/10/8 15/15/8
f 14/14/6 17/17/6 18/18/6 23/23/6
f 12/12/6 14/14/6 23/23/6 22/22/6 21/21/6 15/15/6 10/10/6
f 9/9/5 13/13/5 26/26/5 25/25/5 24/24/5 16/16/5 11/11/5
f 11/11/9 16/16/9 14/14/9 12/12/9
f 19/19/10 20/20/10 2/2/10 6/6/10
f 21/21/6 2/2/6 20/20/6 15/15/6
f 23/23/11 18/18/11 1/1/11 24/24/11
f 26/26/12 21/21/12 22/22/12 25/25/12
f 25/25/13 22/22/13 23/23/13 24/24/13
f 26/26/14 6/6/14 2/2/14 21/21/14
f 18/18/10 17/17/10 5/5/10 1/1/10
