# Blender 3.3.0
# www.blender.org
mtllib player_size_ref.mtl
o Cylinder
v 0.000000 0.000000 -0.300000
v 0.058527 0.000000 -0.294236
v 0.114805 0.000000 -0.277164
v 0.166671 0.000000 -0.249441
v 0.212132 0.000000 -0.212132
v 0.249441 0.000000 -0.166671
v 0.277164 0.000000 -0.114805
v 0.294236 0.000000 -0.058527
v 0.300000 0.000000 -0.000000
v 0.294236 0.000000 0.058527
v 0.277164 0.000000 0.114805
v 0.249441 0.000000 0.166671
v 0.212132 0.000000 0.212132
v 0.166671 0.000000 0.249441
v 0.114805 0.000000 0.277164
v 0.058527 0.000000 0.294236
v 0.000000 0.000000 0.300000
v -0.058527 0.000000 0.294236
v -0.114805 0.000000 0.277164
v -0.166671 0.000000 0.249441
v -0.212132 0.000000 0.212132
v -0.249441 0.000000 0.166671
v -0.277164 0.000000 0.114805
v -0.294236 0.000000 0.058527
v -0.300000 0.000000 -0.000000
v -0.294236 0.000000 -0.058527
v -0.277164 0.000000 -0.114805
v -0.249441 0.000000 -0.166671
v -0.212132 0.000000 -0.212132
v -0.166671 0.000000 -0.249441
v -0.114805 0.000000 -0.277164
v -0.058527 0.000000 -0.294236
v 0.000000 1.700000 -0.300000
v 0.058527 1.700000 -0.294236
v 0.114805 1.700000 -0.277164
v 0.166671 1.700000 -0.249441
v 0.212132 1.700000 -0.212132
v 0.249441 1.700000 -0.166671
v 0.277164 1.700000 -0.114805
v 0.294236 1.700000 -0.058527
v 0.300000 1.700000 -0.000000
v 0.294236 1.700000 0.058527
v 0.277164 1.700000 0.114805
v 0.249441 1.700000 0.166671
v 0.212132 1.700000 0.212132
v 0.166671 1.700000 0.249441
v 0.114805 1.700000 0.277164
v 0.058527 1.700000 0.294236
v 0.000000 1.700000 0.300000
v -0.058527 1.700000 0.294236
v -0.114805 1.700000 0.277164
v -0.166671 1.700000 0.249441
v -0.212132 1.700000 0.212132
v -0.249441 1.700000 0.166671
v -0.277164 1.700000 0.114805
v -0.294236 1.700000 0.058527
v -0.300000 1.700000 -0.000000
v -0.294236 1.700000 -0.058527
v -0.277164 1.700000 -0.114805
v -0.249441 1.700000 -0.166671
v -0.212132 1.700000 -0.212132
v -0.166671 1.700000 -0.249441
v -0.114805 1.700000 -0.277164
v -0.058527 1.700000 -0.294236
v 0.000000 0.000000 -0.300000
v 0.058527 0.000000 -0.294236
v 0.114805 0.000000 -0.277164
v 0.166671 0.000000 -0.249441
v 0.212132 0.000000 -0.212132
v 0.249441 0.000000 -0.166671
v 0.277164 0.000000 -0.114805
v 0.294236 0.000000 -0.058527
v 0.300000 0.000000 -0.000000
v 0.294236 0.000000 0.058527
v 0.277164 0.000000 0.114805
v 0.249441 0.000000 0.166671
v 0.212132 0.000000 0.212132
v 0.166671 0.000000 0.249441
v 0.114805 0.000000 0.277164
v 0.058527 0.000000 0.294236
v 0.000000 0.000000 0.300000
v -0.058527 0.000000 0.294236
v -0.114805 0.000000 0.277164
v -0.166671 0.000000 0.249441
v -0.212132 0.000000 0.212132
v -0.249441 0.000000 0.166671
v -0.277164 0.000000 0.114805
v -0.294236 0.000000 0.058527
v -0.300000 0.000000 -0.000000
v -0.294236 0.000000 -0.058527
v -0.277164 0.000000 -0.114805
v -0.249441 0.000000 -0.166671
v -0.212132 0.000000 -0.212132
v -0.166671 0.000000 -0.249441
v -0.114805 0.000000 -0.277164
v -0.058527 0.000000 -0.294236
v 0.000000 1.700000 -0.300000
v 0.058527 1.700000 -0.294236
v 0.114805 1.700000 -0.277164
v 0.166671 1.700000 -0.249441
v 0.212132 1.700000 -0.212132
v 0.249441 1.700000 -0.166671
v 0.277164 1.700000 -0.114805
v 0.294236 1.700000 -0.058527
v 0.300000 1.700000 -0.000000
v 0.294236 1.700000 0.058527
v 0.277164 1.700000 0.114805
v 0.249441 1.700000 0.166671
v 0.212132 1.700000 0.212132
v 0.166671 1.700000 0.249441
v 0.114805 1.700000 0.277164
v 0.058527 1.700000 0.294236
v 0.000000 1.700000 0.300000
v -0.058527 1.700000 0.294236
v -0.114805 1.700000 0.277164
v -0.166671 1.700000 0.249441
v -0.212132 1.700000 0.212132
v -0.249441 1.700000 0.166671
v -0.277164 1.700000 0.114805
v -0.294236 1.700000 0.058527
v -0.300000 1.700000 -0.000000
v -0.294236 1.700000 -0.058527
v -0.277164 1.700000 -0.114805
v -0.249441 1.700000 -0.166671
v -0.212132 1.700000 -0.212132
v -0.166671 1.700000 -0.249441
v -0.114805 1.700000 -0.277164
v -0.058527 1.700000 -0.294236
vn -0.0000 -1.0000 -0.0000
vn -0.0000 1.0000 -0.0000
vn -0.9569 -0.0000 0.2903
vn 0.9569 -0.0000 0.2903
vn -0.9952 -0.0000 0.0980
vn 0.8819 -0.0000 0.4714
vn -0.9952 -0.0000 -0.0980
vn 0.7730 -0.0000 0.6344
vn -0.9569 -0.0000 -0.2903
vn 0.6344 -0.0000 0.7730
vn -0.8819 -0.0000 -0.4714
vn 0.4714 -0.0000 0.8819
vn 0.0980 -0.0000 -0.9952
vn -0.7730 -0.0000 -0.6344
vn 0.2903 -0.0000 0.9569
vn 0.2903 -0.0000 -0.9569
vn -0.6344 -0.0000 -0.7730
vn 0.0980 -0.0000 0.9952
vn 0.4714 -0.0000 -0.8819
vn -0.4714 -0.0000 -0.8819
vn -0.0980 -0.0000 0.9952
vn 0.6344 -0.0000 -0.7730
vn -0.2903 -0.0000 -0.9569
vn -0.2903 -0.0000 0.9569
vn 0.7730 -0.0000 -0.6344
vn -0.0980 -0.0000 -0.9952
vn -0.4714 -0.0000 0.8819
vn 0.8819 -0.0000 -0.4714
vn -0.6344 -0.0000 0.7730
vn 0.9569 -0.0000 -0.2903
vn -0.7730 -0.0000 0.6344
vn 0.9952 -0.0000 -0.0980
vn -0.8819 -0.0000 0.4714
vn 0.9952 -0.0000 0.0980
vt 0.750000 0.490000
vt 0.796822 0.485388
vt 0.841844 0.471731
vt 0.883337 0.449553
vt 0.919706 0.419706
vt 0.949553 0.383337
vt 0.971731 0.341844
vt 0.985388 0.296822
vt 0.990000 0.250000
vt 0.985388 0.203178
vt 0.971731 0.158156
vt 0.949553 0.116663
vt 0.919706 0.080294
vt 0.883337 0.050447
vt 0.841844 0.028269
vt 0.796822 0.014612
vt 0.750000 0.010000
vt 0.703178 0.014612
vt 0.658156 0.028269
vt 0.616663 0.050447
vt 0.580294 0.080294
vt 0.550447 0.116663
vt 0.528269 0.158156
vt 0.514612 0.203178
vt 0.510000 0.250000
vt 0.514612 0.296822
vt 0.528269 0.341844
vt 0.550447 0.383337
vt 0.580294 0.419706
vt 0.616663 0.449553
vt 0.658156 0.471731
vt 0.703178 0.485388
vt 0.750000 0.490000
vt 0.796822 0.485388
vt 0.841844 0.471731
vt 0.883337 0.449553
vt 0.919706 0.419706
vt 0.949553 0.383337
vt 0.971731 0.341844
vt 0.985388 0.296822
vt 0.990000 0.250000
vt 0.985388 0.203178
vt 0.971731 0.158156
vt 0.949553 0.116663
vt 0.919706 0.080294
vt 0.883337 0.050447
vt 0.841844 0.028269
vt 0.796822 0.014612
vt 0.750000 0.010000
vt 0.703178 0.014612
vt 0.658156 0.028269
vt 0.616663 0.050447
vt 0.580294 0.080294
vt 0.550447 0.116663
vt 0.528269 0.158156
vt 0.514612 0.203178
vt 0.510000 0.250000
vt 0.514612 0.296822
vt 0.528269 0.341844
vt 0.550447 0.383337
vt 0.580294 0.419706
vt 0.616663 0.449553
vt 0.658156 0.471731
vt 0.703178 0.485388
vt 0.750000 0.490000
vt 0.796822 0.485388
vt 0.841844 0.471731
vt 0.883337 0.449553
vt 0.919706 0.419706
vt 0.949553 0.383337
vt 0.971731 0.341844
vt 0.985388 0.296822
vt 0.990000 0.250000
vt 0.985388 0.203178
vt 0.971731 0.158156
vt 0.949553 0.116663
vt 0.919706 0.080294
vt 0.883337 0.050447
vt 0.841844 0.028269
vt 0.796822 0.014612
vt 0.750000 0.010000
vt 0.703178 0.014612
vt 0.658156 0.028269
vt 0.616663 0.050447
vt 0.580294 0.080294
vt 0.550447 0.116663
vt 0.528269 0.158156
vt 0.514612 0.203178
vt 0.510000 0.250000
vt 0.514612 0.296822
vt 0.528269 0.341844
vt 0.550447 0.383337
vt 0.580294 0.419706
vt 0.616663 0.449553
vt 0.658156 0.471731
vt 0.703178 0.485388
vt 0.750000 0.490000
vt 0.796822 0.485388
vt 0.841844 0.471731
vt 0.883337 0.449553
vt 0.919706 0.419706
vt 0.949553 0.383337
vt 0.971731 0.341844
vt 0.985388 0.296822
vt 0.990000 0.250000
vt 0.985388 0.203178
vt 0.971731 0.158156
vt 0.949553 0.116663
vt 0.919706 0.080294
vt 0.883337 0.050447
vt 0.841844 0.028269
vt 0.796822 0.014612
vt 0.750000 0.010000
vt 0.703178 0.014612
vt 0.658156 0.028269
vt 0.616663 0.050447
vt 0.580294 0.080294
vt 0.550447 0.116663
vt 0.528269 0.158156
vt 0.514612 0.203178
vt 0.510000 0.250000
vt 0.514612 0.296822
vt 0.528269 0.341844
vt 0.550447 0.383337
vt 0.580294 0.419706
vt 0.616663 0.449553
vt 0.658156 0.471731
vt 0.703178 0.485388
s 0
f 1/1/1 2/2/1 3/3/1 4/4/1 5/5/1 6/6/1 7/7/1 8/8/1 9/9/1 10/10/1 11/11/1 12/12/1 13/13/1 14/14/1 15/15/1 16/16/1 17/17/1 18/18/1 19/19/1 20/20/1 21/21/1 22/22/1 23/23/1 24/24/1 25/25/1 26/26/1 27/27/1 28/28/1 29/29/1 30/30/1 31/31/1 32/32/1
f 33/33/2 64/64/2 63/63/2 62/62/2 61/61/2 60/60/2 59/59/2 58/58/2 57/57/2 56/56/2 55/55/2 54/54/2 53/53/2 52/52/2 51/51/2 50/50/2 49/49/2 48/48/2 47/47/2 46/46/2 45/45/2 44/44/2 43/43/2 42/42/2 41/41/2 40/40/2 39/39/2 38/38/2 37/37/2 36/36/2 35/35/2 34/34/2
f 23/23/3 55/55/3 56/56/3 24/24/3
f 10/10/4 42/42/4 43/43/4 11/11/4
f 24/24/5 56/56/5 57/57/5 25/25/5
f 11/11/6 43/43/6 44/44/6 12/12/6
f 25/25/7 57/57/7 58/58/7 26/26/7
f 12/12/8 44/44/8 45/45/8 13/13/8
f 26/26/9 58/58/9 59/59/9 27/27/9
f 13/13/10 45/45/10 46/46/10 14/14/10
f 27/27/11 59/59/11 60/60/11 28/28/11
f 14/14/12 46/46/12 47/47/12 15/15/12
f 1/1/13 33/33/13 34/34/13 2/2/13
f 28/28/14 60/60/14 61/61/14 29/29/14
f 15/15/15 47/47/15 48/48/15 16/16/15
f 2/2/16 34/34/16 35/35/16 3/3/16
f 29/29/17 61/61/17 62/62/17 30/30/17
f 16/16/18 48/48/18 49/49/18 17/17/18
f 3/3/19 35/35/19 36/36/19 4/4/19
f 30/30/20 62/62/20 63/63/20 31/31/20
f 17/17/21 49/49/21 50/50/21 18/18/21
f 4/4/22 36/36/22 37/37/22 5/5/22
f 31/31/23 63/63/23 64/64/23 32/32/23
f 18/18/24 50/50/24 51/51/24 19/19/24
f 5/5/25 37/37/25 38/38/25 6/6/25
f 32/32/26 64/64/26 33/33/26 1/1/26
f 19/19/27 51/51/27 52/52/27 20/20/27
f 6/6/28 38/38/28 39/39/28 7/7/28
f 20/20/29 52/52/29 53/53/29 21/21/29
f 7/7/30 39/39/30 40/40/30 8/8/30
f 21/21/31 53/53/31 54/54/31 22/22/31
f 8/8/32 40/40/32 41/41/32 9/9/32
f 22/22/33 54/54/33 55/55/33 23/23/33
f 9/9/34 41/41/34 42/42/34 10/10/34
f 65/65/1 66/66/1 67/67/1 68/68/1 69/69/1 70/70/1 71/71/1 72/72/1 73/73/1 74/74/1 75/75/1 76/76/1 77/77/1 78/78/1 79/79/1 80/80/1 81/81/1 82/82/1 83/83/1 84/84/1 85/85/1 86/86/1 87/87/1 88/88/1 89/89/1 90/90/1 91/91/1 92/92/1 93/93/1 94/94/1 95/95/1 96/96/1
f 97/97/2 128/128/2 127/127/2 126/126/2 125/125/2 124/124/2 123/123/2 122/122/2 121/121/2 120/120/2 119/119/2 118/118/2 117/117/2 116/116/2 115/115/2 114/114/2 113/113/2 112/112/2 111/111/2 110/110/2 109/109/2 108/108/2 107/107/2 106/106/2 105/105/2 104/104/2 103/103/2 102/102/2 101/101/2 100/100/2 99/99/2 98/98/2
f 87/87/3 119/119/3 120/120/3 88/88/3
f 74/74/4 106/106/4 107/107/4 75/75/4
f 88/88/5 120/120/5 121/121/5 89/89/5
f 75/75/6 107/107/6 108/108/6 76/76/6
f 89/89/7 121/121/7 122/122/7 90/90/7
f 76/76/8 108/108/8 109/109/8 77/77/8
f 90/90/9 122/122/9 123/123/9 91/91/9
f 77/77/10 109/109/10 110/110/10 78/78/10
f 91/91/11 123/123/11 124/124/11 92/92/11
f 78/78/12 110/110/12 111/111/12 79/79/12
f 65/65/13 97/97/13 98/98/13 66/66/13
f 92/92/14 124/124/14 125/125/14 93/93/14
f 79/79/15 111/111/15 112/112/15 80/80/15
f 66/66/16 98/98/16 99/99/16 67/67/16
f 93/93/17 125/125/17 126/126/17 94/94/17
f 80/80/18 112/112/18 113/113/18 81/81/18
f 67/67/19 99/99/19 100/100/19 68/68/19
f 94/94/20 126/126/20 127/127/20 95/95/20
f 81/81/21 113/113/21 114/114/21 82/82/21
f 68/68/22 100/100/22 101/101/22 69/69/22
f 95/95/23 127/127/23 128/128/23 96/96/23
f 82/82/24 114/114/24 115/115/24 83/83/24
f 69/69/25 101/101/25 102/102/25 70/70/25
f 96/96/26 128/128/26 97/97/26 65/65/26
f 83/83/27 115/115/27 116/116/27 84/84/27
f 70/70/28 102/102/28 103/103/28 71/71/28
f 84/84/29 116/116/29 117/117/29 85/85/29
f 71/71/30 103/103/30 104/104/30 72/72/30
f 85/85/31 117/117/31 118/118/31 86/86/31
f 72/72/32 104/104/32 105/105/32 73/73/32
f 86/86/33 118/118/33 119/119/33 87/87/33
f 73/73/34 105/105/34 106/106/34 74/74/34
